solid OpenSCAD_Model
  facet normal -0.668965 0.743294 -9.10273e-17
    outer loop
      vertex -5 2.75 -3.36778e-16
      vertex -2.5 5 -6.12323e-16
      vertex -5 2.75 -10
    endloop
  endfacet
  facet normal -0.668965 0.743294 -9.10273e-17
    outer loop
      vertex -5 2.75 -10
      vertex -2.5 5 -6.12323e-16
      vertex -2.5 5 -10
    endloop
  endfacet
  facet normal 0 1.22465e-16 1
    outer loop
      vertex -2.5 5 -6.12323e-16
      vertex -5 2.75 -3.36778e-16
      vertex -5 -2.75 3.36778e-16
    endloop
  endfacet
  facet normal 0 1.22465e-16 1
    outer loop
      vertex -1.75 -5 6.12323e-16
      vertex -2.5 5 -6.12323e-16
      vertex -2.5 -5 6.12323e-16
    endloop
  endfacet
  facet normal 0 1.22465e-16 1
    outer loop
      vertex -2.5 -5 6.12323e-16
      vertex -2.5 5 -6.12323e-16
      vertex -5 -2.75 3.36778e-16
    endloop
  endfacet
  facet normal 0 1.22465e-16 1
    outer loop
      vertex -1.75 -2.75 3.36778e-16
      vertex -2.5 5 -6.12323e-16
      vertex -1.75 -5 6.12323e-16
    endloop
  endfacet
  facet normal 0 1.22465e-16 1
    outer loop
      vertex 0 -2.75 3.36778e-16
      vertex -2.5 5 -6.12323e-16
      vertex -1.75 -2.75 3.36778e-16
    endloop
  endfacet
  facet normal 0 1.22465e-16 1
    outer loop
      vertex -1.75 2.75 -3.36778e-16
      vertex -2.5 5 -6.12323e-16
      vertex 0 -2.75 3.36778e-16
    endloop
  endfacet
  facet normal 0 1.22465e-16 1
    outer loop
      vertex 0 2.75 -3.36778e-16
      vertex -1.75 2.75 -3.36778e-16
      vertex 0 -2.75 3.36778e-16
    endloop
  endfacet
  facet normal 0 1.22465e-16 1
    outer loop
      vertex -1.75 2.75 -3.36778e-16
      vertex -1.75 5 -6.12323e-16
      vertex -2.5 5 -6.12323e-16
    endloop
  endfacet
  facet normal -1 0 0
    outer loop
      vertex -5 2.75 -3.36778e-16
      vertex -5 2.75 -10
      vertex -5 -2.75 3.36778e-16
    endloop
  endfacet
  facet normal -1 0 0
    outer loop
      vertex -5 -2.75 3.36778e-16
      vertex -5 2.75 -10
      vertex -5 -2.75 -10
    endloop
  endfacet
  facet normal 0 -1.22465e-16 -1
    outer loop
      vertex -5 2.75 -10
      vertex -2.5 5 -10
      vertex -5 -2.75 -10
    endloop
  endfacet
  facet normal 0 -1.22465e-16 -1
    outer loop
      vertex -5 -2.75 -10
      vertex -2.5 5 -10
      vertex -1.75 5 -10
    endloop
  endfacet
  facet normal 0 -1.22465e-16 -1
    outer loop
      vertex -5 -2.75 -10
      vertex -1.75 5 -10
      vertex -1.75 2.75 -10
    endloop
  endfacet
  facet normal 0 -1.22465e-16 -1
    outer loop
      vertex -5 -2.75 -10
      vertex -1.75 2.75 -10
      vertex 0 2.75 -10
    endloop
  endfacet
  facet normal 0 -1.22465e-16 -1
    outer loop
      vertex 0 2.75 -10
      vertex 0 6.7 -10
      vertex 12.5 6.7 -10
    endloop
  endfacet
  facet normal 0 -1.22465e-16 -1
    outer loop
      vertex 0 2.75 -10
      vertex 12.5 6.7 -10
      vertex -5 -2.75 -10
    endloop
  endfacet
  facet normal 0 -1.22465e-16 -1
    outer loop
      vertex 0 -2.75 -10
      vertex 12.5 6.7 -10
      vertex 12.5 -6.7 -10
    endloop
  endfacet
  facet normal 0 -1.22465e-16 -1
    outer loop
      vertex -5 -2.75 -10
      vertex 12.5 6.7 -10
      vertex -1.75 -2.75 -10
    endloop
  endfacet
  facet normal 0 -1.22465e-16 -1
    outer loop
      vertex -2.5 -5 -10
      vertex -5 -2.75 -10
      vertex -1.75 -5 -10
    endloop
  endfacet
  facet normal 0 -1.22465e-16 -1
    outer loop
      vertex 12.5 6.7 -10
      vertex 0 -2.75 -10
      vertex -1.75 -2.75 -10
    endloop
  endfacet
  facet normal 0 -1.22465e-16 -1
    outer loop
      vertex 0 -2.75 -10
      vertex 12.5 -6.7 -10
      vertex 0 -6.7 -10
    endloop
  endfacet
  facet normal 0 -1.22465e-16 -1
    outer loop
      vertex -1.75 -5 -10
      vertex -5 -2.75 -10
      vertex -1.75 -2.75 -10
    endloop
  endfacet
  facet normal 0 1 -1.22465e-16
    outer loop
      vertex -2.5 5 -6.12323e-16
      vertex -1.75 5 -6.12323e-16
      vertex -2.5 5 -10
    endloop
  endfacet
  facet normal 0 1 -1.22465e-16
    outer loop
      vertex -2.5 5 -10
      vertex -1.75 5 -6.12323e-16
      vertex -1.75 5 -10
    endloop
  endfacet
  facet normal 1 0 0
    outer loop
      vertex -1.75 5 -10
      vertex -1.75 5 -6.12323e-16
      vertex -1.75 2.75 -3.36778e-16
    endloop
  endfacet
  facet normal 1 0 0
    outer loop
      vertex -1.75 2.75 -10
      vertex -1.75 5 -10
      vertex -1.75 2.75 -3.36778e-16
    endloop
  endfacet
  facet normal 0 1 -1.22465e-16
    outer loop
      vertex -1.75 2.75 -3.36778e-16
      vertex 0 2.75 -3.36778e-16
      vertex -1.75 2.75 -10
    endloop
  endfacet
  facet normal 0 1 -1.22465e-16
    outer loop
      vertex -1.75 2.75 -10
      vertex 0 2.75 -3.36778e-16
      vertex 0 2.75 -10
    endloop
  endfacet
  facet normal -1 0 0
    outer loop
      vertex 0 6.7 10
      vertex 0 6.7 -10
      vertex 0 2.75 -3.36778e-16
    endloop
  endfacet
  facet normal -1 0 0
    outer loop
      vertex 0 -1.125 6.94856
      vertex 0 -6.7 10
      vertex 0 8.87869e-16 7.25
    endloop
  endfacet
  facet normal -1 0 0
    outer loop
      vertex 0 -6.7 10
      vertex 0 -2.75 3.36778e-16
      vertex 0 -2.75 -10
    endloop
  endfacet
  facet normal -1 0 0
    outer loop
      vertex 0 -6.7 10
      vertex 0 -2.75 -10
      vertex 0 -6.7 -10
    endloop
  endfacet
  facet normal -1 0 0
    outer loop
      vertex 0 6.7 10
      vertex 0 2.75 -3.36778e-16
      vertex 0 2.25 5
    endloop
  endfacet
  facet normal -1 0 0
    outer loop
      vertex 0 6.7 10
      vertex 0 2.25 5
      vertex 0 1.94856 6.125
    endloop
  endfacet
  facet normal -1 0 0
    outer loop
      vertex 0 6.7 10
      vertex 0 1.94856 6.125
      vertex 0 1.125 6.94856
    endloop
  endfacet
  facet normal -1 0 0
    outer loop
      vertex 0 6.7 10
      vertex 0 1.125 6.94856
      vertex 0 -6.7 10
    endloop
  endfacet
  facet normal -1 0 0
    outer loop
      vertex 0 1.125 6.94856
      vertex 0 8.87869e-16 7.25
      vertex 0 -6.7 10
    endloop
  endfacet
  facet normal -1 0 0
    outer loop
      vertex 0 -1.94856 6.125
      vertex 0 -6.7 10
      vertex 0 -1.125 6.94856
    endloop
  endfacet
  facet normal -1 0 0
    outer loop
      vertex 0 -2.25 5
      vertex 0 -6.7 10
      vertex 0 -1.94856 6.125
    endloop
  endfacet
  facet normal -1 0 0
    outer loop
      vertex 0 -2.75 3.36778e-16
      vertex 0 -1.94856 3.875
      vertex 0 -1.125 3.05144
    endloop
  endfacet
  facet normal -1 0 0
    outer loop
      vertex 0 1.125 3.05144
      vertex 0 2.75 -3.36778e-16
      vertex 0 3.36778e-16 2.75
    endloop
  endfacet
  facet normal -1 0 0
    outer loop
      vertex 0 -2.75 3.36778e-16
      vertex 0 3.36778e-16 2.75
      vertex 0 2.75 -3.36778e-16
    endloop
  endfacet
  facet normal -1 0 0
    outer loop
      vertex 0 -2.25 5
      vertex 0 -1.94856 3.875
      vertex 0 -6.7 10
    endloop
  endfacet
  facet normal -1 0 0
    outer loop
      vertex 0 -2.75 3.36778e-16
      vertex 0 -1.125 3.05144
      vertex 0 3.36778e-16 2.75
    endloop
  endfacet
  facet normal -1 0 0
    outer loop
      vertex 0 -2.75 3.36778e-16
      vertex 0 -6.7 10
      vertex 0 -1.94856 3.875
    endloop
  endfacet
  facet normal -1 0 0
    outer loop
      vertex 0 1.94856 3.875
      vertex 0 2.75 -3.36778e-16
      vertex 0 1.125 3.05144
    endloop
  endfacet
  facet normal -1 0 0
    outer loop
      vertex 0 2.25 5
      vertex 0 2.75 -3.36778e-16
      vertex 0 1.94856 3.875
    endloop
  endfacet
  facet normal -1 0 0
    outer loop
      vertex 0 2.75 -3.36778e-16
      vertex 0 6.7 -10
      vertex 0 2.75 -10
    endloop
  endfacet
  facet normal 0 -1 1.22465e-16
    outer loop
      vertex 0 -2.75 3.36778e-16
      vertex -1.75 -2.75 3.36778e-16
      vertex -1.75 -2.75 -10
    endloop
  endfacet
  facet normal 0 -1 1.22465e-16
    outer loop
      vertex 0 -2.75 -10
      vertex 0 -2.75 3.36778e-16
      vertex -1.75 -2.75 -10
    endloop
  endfacet
  facet normal 1 0 0
    outer loop
      vertex -1.75 -2.75 -10
      vertex -1.75 -2.75 3.36778e-16
      vertex -1.75 -5 6.12323e-16
    endloop
  endfacet
  facet normal 1 0 0
    outer loop
      vertex -1.75 -5 -10
      vertex -1.75 -2.75 -10
      vertex -1.75 -5 6.12323e-16
    endloop
  endfacet
  facet normal 0 -1 1.22465e-16
    outer loop
      vertex -1.75 -5 6.12323e-16
      vertex -2.5 -5 6.12323e-16
      vertex -2.5 -5 -10
    endloop
  endfacet
  facet normal 0 -1 1.22465e-16
    outer loop
      vertex -1.75 -5 -10
      vertex -1.75 -5 6.12323e-16
      vertex -2.5 -5 -10
    endloop
  endfacet
  facet normal -0.668965 -0.743294 9.10273e-17
    outer loop
      vertex -2.5 -5 6.12323e-16
      vertex -5 -2.75 3.36778e-16
      vertex -5 -2.75 -10
    endloop
  endfacet
  facet normal -0.668965 -0.743294 9.10273e-17
    outer loop
      vertex -2.5 -5 -10
      vertex -2.5 -5 6.12323e-16
      vertex -5 -2.75 -10
    endloop
  endfacet
  facet normal 0 -1 1.22465e-16
    outer loop
      vertex 2 -6.7 10
      vertex 0 -6.7 10
      vertex 0 -6.7 -10
    endloop
  endfacet
  facet normal 0 -1 1.22465e-16
    outer loop
      vertex 2 -6.7 10
      vertex 4.2 -6.7 8.36571
      vertex 4.2 -6.7 10
    endloop
  endfacet
  facet normal 0 -1 1.22465e-16
    outer loop
      vertex 18.6332 -6.7 -10
      vertex 17.5 -6.7 -9
      vertex 17.5 -6.7 -10
    endloop
  endfacet
  facet normal 0 -1 1.22465e-16
    outer loop
      vertex 12.5 -6.7 -10
      vertex 2 -6.7 -3
      vertex 0 -6.7 -10
    endloop
  endfacet
  facet normal 0 -1 1.22465e-16
    outer loop
      vertex 4.2 -6.7 10
      vertex 0 -6.7 10
      vertex 2 -6.7 10
    endloop
  endfacet
  facet normal 0 -1 1.22465e-16
    outer loop
      vertex 2 -6.7 -3
      vertex 2 -6.7 10
      vertex 0 -6.7 -10
    endloop
  endfacet
  facet normal 0 -1 1.22465e-16
    outer loop
      vertex 18.6332 -6.7 -3
      vertex 17.5 -6.7 -9
      vertex 18.6332 -6.7 -10
    endloop
  endfacet
  facet normal 0 -1 1.22465e-16
    outer loop
      vertex 18.6332 -6.7 -3
      vertex 12.5 -6.7 -9
      vertex 17.5 -6.7 -9
    endloop
  endfacet
  facet normal 0 -1 1.22465e-16
    outer loop
      vertex 12.5 -6.7 -9
      vertex 2 -6.7 -3
      vertex 12.5 -6.7 -10
    endloop
  endfacet
  facet normal 0 -1 1.22465e-16
    outer loop
      vertex 18.6332 -6.7 -3
      vertex 2 -6.7 -3
      vertex 12.5 -6.7 -9
    endloop
  endfacet
  facet normal 1 0 0
    outer loop
      vertex 12.5 -6.7 -9
      vertex 12.5 -6.7 -10
      vertex 12.5 6.7 -10
    endloop
  endfacet
  facet normal 1 0 0
    outer loop
      vertex 12.5 6.7 -9
      vertex 12.5 -6.7 -9
      vertex 12.5 6.7 -10
    endloop
  endfacet
  facet normal 0 1 -1.22465e-16
    outer loop
      vertex 0 6.7 10
      vertex 4.2 6.7 10
      vertex 0 6.7 -10
    endloop
  endfacet
  facet normal 0 1 -1.22465e-16
    outer loop
      vertex 0 6.7 -10
      vertex 4.2 6.7 10
      vertex 4.2 6.7 -3
    endloop
  endfacet
  facet normal 0 1 -1.22465e-16
    outer loop
      vertex 0 6.7 -10
      vertex 4.2 6.7 -3
      vertex 18.6332 6.7 -3
    endloop
  endfacet
  facet normal 0 1 -1.22465e-16
    outer loop
      vertex 17.5 6.7 -10
      vertex 18.6332 6.7 -3
      vertex 18.6332 6.7 -10
    endloop
  endfacet
  facet normal 0 1 -1.22465e-16
    outer loop
      vertex 17.5 6.7 -9
      vertex 18.6332 6.7 -3
      vertex 17.5 6.7 -10
    endloop
  endfacet
  facet normal 0 1 -1.22465e-16
    outer loop
      vertex 12.5 6.7 -9
      vertex 18.6332 6.7 -3
      vertex 17.5 6.7 -9
    endloop
  endfacet
  facet normal 0 1 -1.22465e-16
    outer loop
      vertex 0 6.7 -10
      vertex 18.6332 6.7 -3
      vertex 12.5 6.7 -9
    endloop
  endfacet
  facet normal 0 1 -1.22465e-16
    outer loop
      vertex 12.5 6.7 -10
      vertex 0 6.7 -10
      vertex 12.5 6.7 -9
    endloop
  endfacet
  facet normal 0 1.22465e-16 1
    outer loop
      vertex 2 6 10
      vertex 0 6.7 10
      vertex 0 -6.7 10
    endloop
  endfacet
  facet normal 0 1.22465e-16 1
    outer loop
      vertex 2 -5.3 10
      vertex 4.2 6.7 10
      vertex 0 -6.7 10
    endloop
  endfacet
  facet normal 0 1.22465e-16 1
    outer loop
      vertex 4.2 6.7 10
      vertex 2 6 10
      vertex 0 -6.7 10
    endloop
  endfacet
  facet normal 0 1.22465e-16 1
    outer loop
      vertex 2 6.7 10
      vertex 0 6.7 10
      vertex 2 6 10
    endloop
  endfacet
  facet normal 0 1.22465e-16 1
    outer loop
      vertex 4.2 6.7 10
      vertex 0 6.7 10
      vertex 2 6.7 10
    endloop
  endfacet
  facet normal 0 1.22465e-16 1
    outer loop
      vertex 4.2 6.7 10
      vertex 2 6.7 10
      vertex 2 6 10
    endloop
  endfacet
  facet normal 0 1.22465e-16 1
    outer loop
      vertex 4.2 -6.7 10
      vertex 2 -6 10
      vertex 0 -6.7 10
    endloop
  endfacet
  facet normal 0 1.22465e-16 1
    outer loop
      vertex 4.2 -6.7 10
      vertex 4.2 6.7 10
      vertex 2 -6 10
    endloop
  endfacet
  facet normal 0 1.22465e-16 1
    outer loop
      vertex 2 -6 10
      vertex 2 -5.3 10
      vertex 0 -6.7 10
    endloop
  endfacet
  facet normal 0 1.22465e-16 1
    outer loop
      vertex 2 -6 10
      vertex 4.2 6.7 10
      vertex 2 -5.3 10
    endloop
  endfacet
  facet normal 5.74694e-17 -0.965926 0.258819
    outer loop
      vertex 0 1.94856 3.875
      vertex 4.2 1.94856 3.875
      vertex 4.2 2.25 5
    endloop
  endfacet
  facet normal 5.74694e-17 -0.965926 0.258819
    outer loop
      vertex 0 2.25 5
      vertex 0 1.94856 3.875
      vertex 4.2 2.25 5
    endloop
  endfacet
  facet normal -5.74694e-17 -0.965926 -0.258819
    outer loop
      vertex 4.2 2.25 5
      vertex 4.2 1.94856 6.125
      vertex 0 1.94856 6.125
    endloop
  endfacet
  facet normal -5.74694e-17 -0.965926 -0.258819
    outer loop
      vertex 0 2.25 5
      vertex 4.2 2.25 5
      vertex 0 1.94856 6.125
    endloop
  endfacet
  facet normal 1.57009e-16 -0.707107 0.707107
    outer loop
      vertex 0 1.125 3.05144
      vertex 4.2 1.125 3.05144
      vertex 4.2 1.94856 3.875
    endloop
  endfacet
  facet normal 1.57009e-16 -0.707107 0.707107
    outer loop
      vertex 0 1.94856 3.875
      vertex 0 1.125 3.05144
      vertex 4.2 1.94856 3.875
    endloop
  endfacet
  facet normal 2.14479e-16 -0.258819 0.965926
    outer loop
      vertex 0 3.36778e-16 2.75
      vertex 4.2 3.36778e-16 2.75
      vertex 4.2 1.125 3.05144
    endloop
  endfacet
  facet normal 2.14479e-16 -0.258819 0.965926
    outer loop
      vertex 0 1.125 3.05144
      vertex 0 3.36778e-16 2.75
      vertex 4.2 1.125 3.05144
    endloop
  endfacet
  facet normal 2.14479e-16 0.258819 0.965926
    outer loop
      vertex 0 -1.125 3.05144
      vertex 4.2 -1.125 3.05144
      vertex 4.2 3.36778e-16 2.75
    endloop
  endfacet
  facet normal 2.14479e-16 0.258819 0.965926
    outer loop
      vertex 0 3.36778e-16 2.75
      vertex 0 -1.125 3.05144
      vertex 4.2 3.36778e-16 2.75
    endloop
  endfacet
  facet normal 1.57009e-16 0.707107 0.707107
    outer loop
      vertex 4.2 -1.94856 3.875
      vertex 4.2 -1.125 3.05144
      vertex 0 -1.94856 3.875
    endloop
  endfacet
  facet normal 1.57009e-16 0.707107 0.707107
    outer loop
      vertex 0 -1.94856 3.875
      vertex 4.2 -1.125 3.05144
      vertex 0 -1.125 3.05144
    endloop
  endfacet
  facet normal 5.74694e-17 0.965926 0.258819
    outer loop
      vertex 4.2 -2.25 5
      vertex 4.2 -1.94856 3.875
      vertex 0 -2.25 5
    endloop
  endfacet
  facet normal 5.74694e-17 0.965926 0.258819
    outer loop
      vertex 0 -2.25 5
      vertex 4.2 -1.94856 3.875
      vertex 0 -1.94856 3.875
    endloop
  endfacet
  facet normal -5.74694e-17 0.965926 -0.258819
    outer loop
      vertex 4.2 -2.25 5
      vertex 0 -2.25 5
      vertex 4.2 -1.94856 6.125
    endloop
  endfacet
  facet normal -5.74694e-17 0.965926 -0.258819
    outer loop
      vertex 4.2 -1.94856 6.125
      vertex 0 -2.25 5
      vertex 0 -1.94856 6.125
    endloop
  endfacet
  facet normal -1.57009e-16 0.707107 -0.707107
    outer loop
      vertex 4.2 -1.94856 6.125
      vertex 0 -1.94856 6.125
      vertex 4.2 -1.125 6.94856
    endloop
  endfacet
  facet normal -1.57009e-16 0.707107 -0.707107
    outer loop
      vertex 4.2 -1.125 6.94856
      vertex 0 -1.94856 6.125
      vertex 0 -1.125 6.94856
    endloop
  endfacet
  facet normal -2.14479e-16 0.258819 -0.965926
    outer loop
      vertex 4.2 -1.125 6.94856
      vertex 0 -1.125 6.94856
      vertex 4.2 8.87869e-16 7.25
    endloop
  endfacet
  facet normal -2.14479e-16 0.258819 -0.965926
    outer loop
      vertex 4.2 8.87869e-16 7.25
      vertex 0 -1.125 6.94856
      vertex 0 8.87869e-16 7.25
    endloop
  endfacet
  facet normal -2.14479e-16 -0.258819 -0.965926
    outer loop
      vertex 4.2 8.87869e-16 7.25
      vertex 0 8.87869e-16 7.25
      vertex 4.2 1.125 6.94856
    endloop
  endfacet
  facet normal -2.14479e-16 -0.258819 -0.965926
    outer loop
      vertex 4.2 1.125 6.94856
      vertex 0 8.87869e-16 7.25
      vertex 0 1.125 6.94856
    endloop
  endfacet
  facet normal -1.57009e-16 -0.707107 -0.707107
    outer loop
      vertex 4.2 1.94856 6.125
      vertex 4.2 1.125 6.94856
      vertex 0 1.125 6.94856
    endloop
  endfacet
  facet normal -1.57009e-16 -0.707107 -0.707107
    outer loop
      vertex 0 1.94856 6.125
      vertex 4.2 1.94856 6.125
      vertex 0 1.125 6.94856
    endloop
  endfacet
  facet normal 1 0 0
    outer loop
      vertex 4.2 5.3 8.36571
      vertex 4.2 6.7 10
      vertex 4.2 -6.7 10
    endloop
  endfacet
  facet normal 1 0 0
    outer loop
      vertex 4.2 -6.7 8.36571
      vertex 4.2 -5.3 8.36571
      vertex 4.2 -6.7 10
    endloop
  endfacet
  facet normal 1 0 0
    outer loop
      vertex 4.2 -6 -3
      vertex 4.2 5.3 -3
      vertex 4.2 -5.3 -3
    endloop
  endfacet
  facet normal 1 0 0
    outer loop
      vertex 4.2 8.87869e-16 7.25
      vertex 4.2 5.3 8.36571
      vertex 4.2 -6.7 10
    endloop
  endfacet
  facet normal 1 0 0
    outer loop
      vertex 4.2 6.7 8.36571
      vertex 4.2 6.7 10
      vertex 4.2 5.3 8.36571
    endloop
  endfacet
  facet normal 1 0 0
    outer loop
      vertex 4.2 3.36778e-16 2.75
      vertex 4.2 -1.125 3.05144
      vertex 4.2 5.3 -3
    endloop
  endfacet
  facet normal 1 0 0
    outer loop
      vertex 4.2 6.7 -3
      vertex 4.2 6.7 10
      vertex 4.2 6.7 8.36571
    endloop
  endfacet
  facet normal 1 0 0
    outer loop
      vertex 4.2 -1.125 6.94856
      vertex 4.2 8.87869e-16 7.25
      vertex 4.2 -6.7 10
    endloop
  endfacet
  facet normal 1 0 0
    outer loop
      vertex 4.2 -2.25 5
      vertex 4.2 -6.7 10
      vertex 4.2 -5.3 8.36571
    endloop
  endfacet
  facet normal 1 0 0
    outer loop
      vertex 4.2 -2.25 5
      vertex 4.2 -1.94856 6.125
      vertex 4.2 -6.7 10
    endloop
  endfacet
  facet normal 1 0 0
    outer loop
      vertex 4.2 5.3 -3
      vertex 4.2 -1.125 3.05144
      vertex 4.2 -5.3 -3
    endloop
  endfacet
  facet normal 1 0 0
    outer loop
      vertex 4.2 1.125 6.94856
      vertex 4.2 5.3 8.36571
      vertex 4.2 8.87869e-16 7.25
    endloop
  endfacet
  facet normal 1 0 0
    outer loop
      vertex 4.2 1.94856 6.125
      vertex 4.2 5.3 8.36571
      vertex 4.2 1.125 6.94856
    endloop
  endfacet
  facet normal 1 0 0
    outer loop
      vertex 4.2 -5.3 8.36571
      vertex 4.2 -1.94856 3.875
      vertex 4.2 -2.25 5
    endloop
  endfacet
  facet normal 1 0 0
    outer loop
      vertex 4.2 -1.94856 3.875
      vertex 4.2 -5.3 -3
      vertex 4.2 -1.125 3.05144
    endloop
  endfacet
  facet normal 1 0 0
    outer loop
      vertex 4.2 -5.3 8.36571
      vertex 4.2 -5.3 -3
      vertex 4.2 -1.94856 3.875
    endloop
  endfacet
  facet normal 1 0 0
    outer loop
      vertex 4.2 -1.94856 6.125
      vertex 4.2 -1.125 6.94856
      vertex 4.2 -6.7 10
    endloop
  endfacet
  facet normal 1 0 0
    outer loop
      vertex 4.2 5.3 -3
      vertex 4.2 1.125 3.05144
      vertex 4.2 3.36778e-16 2.75
    endloop
  endfacet
  facet normal 1 0 0
    outer loop
      vertex 4.2 5.3 -3
      vertex 4.2 1.94856 3.875
      vertex 4.2 1.125 3.05144
    endloop
  endfacet
  facet normal 1 0 0
    outer loop
      vertex 4.2 5.3 -3
      vertex 4.2 2.25 5
      vertex 4.2 1.94856 3.875
    endloop
  endfacet
  facet normal 1 0 0
    outer loop
      vertex 4.2 5.3 -3
      vertex 4.2 1.94856 6.125
      vertex 4.2 2.25 5
    endloop
  endfacet
  facet normal 1 0 0
    outer loop
      vertex 4.2 5.3 -3
      vertex 4.2 5.3 8.36571
      vertex 4.2 1.94856 6.125
    endloop
  endfacet
  facet normal 0.596324 -7.99372e-17 0.802744
    outer loop
      vertex 19.5 -6 -3
      vertex 4.2 -6.7 8.36571
      vertex 19.5 -6.7 -3
    endloop
  endfacet
  facet normal 0.596324 -7.99372e-17 0.802744
    outer loop
      vertex 19.5 -6.7 -3
      vertex 4.2 -6.7 8.36571
      vertex 2 -6.7 10
    endloop
  endfacet
  facet normal 0.596324 -7.99372e-17 0.802744
    outer loop
      vertex 4.2 -5.3 8.36571
      vertex 19.5 -6 -3
      vertex 19.5 -5.3 -3
    endloop
  endfacet
  facet normal 0.596324 -7.99372e-17 0.802744
    outer loop
      vertex 4.2 -5.3 8.36571
      vertex 4.2 -6.7 8.36571
      vertex 19.5 -6 -3
    endloop
  endfacet
  facet normal -0.95694 -0.290285 3.55496e-17
    outer loop
      vertex 18.6332 -6.7 -3
      vertex 18.6332 -6.7 -10
      vertex 19.2127 -8.61038 -10
    endloop
  endfacet
  facet normal -0.95694 -0.290285 3.55496e-17
    outer loop
      vertex 18.6332 -6.7 -3
      vertex 19.2127 -8.61038 -10
      vertex 19.2127 -8.61038 -3
    endloop
  endfacet
  facet normal 0 -1.22465e-16 -1
    outer loop
      vertex 17.5 6.7 -10
      vertex 18.6332 6.7 -10
      vertex 17.5 -6.7 -10
    endloop
  endfacet
  facet normal 0 -1.22465e-16 -1
    outer loop
      vertex 17.5 -6.7 -10
      vertex 18.6332 6.7 -10
      vertex 19.2127 8.61038 -10
    endloop
  endfacet
  facet normal 0 -1.22465e-16 -1
    outer loop
      vertex 19.2127 8.61038 -10
      vertex 21.2919 12.5003 -10
      vertex 17.5 -6.7 -10
    endloop
  endfacet
  facet normal 0 -1.22465e-16 -1
    outer loop
      vertex 17.5 -6.7 -10
      vertex 21.2919 12.5003 -10
      vertex 24.0901 15.9099 -10
    endloop
  endfacet
  facet normal 0 -1.22465e-16 -1
    outer loop
      vertex 17.5 -6.7 -10
      vertex 24.0901 15.9099 -10
      vertex 27.4997 18.7081 -10
    endloop
  endfacet
  facet normal 0 -1.22465e-16 -1
    outer loop
      vertex 25.4493 9.72248 -10
      vertex 27.4997 18.7081 -10
      vertex 31.3896 20.7873 -10
    endloop
  endfacet
  facet normal 0 -1.22465e-16 -1
    outer loop
      vertex 30.2775 14.5507 -10
      vertex 31.3896 20.7873 -10
      vertex 35.6105 22.0677 -10
    endloop
  endfacet
  facet normal 0 -1.22465e-16 -1
    outer loop
      vertex 33.303 16.1679 -10
      vertex 35.6105 22.0677 -10
      vertex 40 22.5 -10
    endloop
  endfacet
  facet normal 0 -1.22465e-16 -1
    outer loop
      vertex 40 17.5 -10
      vertex 40 22.5 -10
      vertex 44.3895 22.0677 -10
    endloop
  endfacet
  facet normal 0 -1.22465e-16 -1
    outer loop
      vertex 43.4141 17.1637 -10
      vertex 44.3895 22.0677 -10
      vertex 48.6104 20.7873 -10
    endloop
  endfacet
  facet normal 0 -1.22465e-16 -1
    outer loop
      vertex 46.697 16.1679 -10
      vertex 48.6104 20.7873 -10
      vertex 52.5003 18.7081 -10
    endloop
  endfacet
  facet normal 0 -1.22465e-16 -1
    outer loop
      vertex 49.7225 14.5507 -10
      vertex 52.5003 18.7081 -10
      vertex 55.9099 15.9099 -10
    endloop
  endfacet
  facet normal 0 -1.22465e-16 -1
    outer loop
      vertex 52.3744 12.3744 -10
      vertex 55.9099 15.9099 -10
      vertex 58.7081 12.5003 -10
    endloop
  endfacet
  facet normal 0 -1.22465e-16 -1
    outer loop
      vertex 54.5507 9.72248 -10
      vertex 58.7081 12.5003 -10
      vertex 60.7873 8.61038 -10
    endloop
  endfacet
  facet normal 0 -1.22465e-16 -1
    outer loop
      vertex 57.1637 3.41408 -10
      vertex 60.7873 8.61038 -10
      vertex 62.0677 4.38953 -10
    endloop
  endfacet
  facet normal 0 -1.22465e-16 -1
    outer loop
      vertex 57.5 -1.22465e-15 -10
      vertex 62.0677 4.38953 -10
      vertex 62.5 -1.22465e-15 -10
    endloop
  endfacet
  facet normal 0 -1.22465e-16 -1
    outer loop
      vertex 57.1637 -3.41408 -10
      vertex 62.5 -1.22465e-15 -10
      vertex 62.0677 -4.38953 -10
    endloop
  endfacet
  facet normal 0 -1.22465e-16 -1
    outer loop
      vertex 56.1679 -6.69696 -10
      vertex 62.0677 -4.38953 -10
      vertex 60.7873 -8.61038 -10
    endloop
  endfacet
  facet normal 0 -1.22465e-16 -1
    outer loop
      vertex 54.5507 -9.72248 -10
      vertex 60.7873 -8.61038 -10
      vertex 58.7081 -12.5003 -10
    endloop
  endfacet
  facet normal 0 -1.22465e-16 -1
    outer loop
      vertex 52.3744 -12.3744 -10
      vertex 58.7081 -12.5003 -10
      vertex 55.9099 -15.9099 -10
    endloop
  endfacet
  facet normal 0 -1.22465e-16 -1
    outer loop
      vertex 46.697 -16.1679 -10
      vertex 55.9099 -15.9099 -10
      vertex 52.5003 -18.7081 -10
    endloop
  endfacet
  facet normal 0 -1.22465e-16 -1
    outer loop
      vertex 43.4141 -17.1637 -10
      vertex 52.5003 -18.7081 -10
      vertex 48.6104 -20.7873 -10
    endloop
  endfacet
  facet normal 0 -1.22465e-16 -1
    outer loop
      vertex 36.5859 -17.1637 -10
      vertex 48.6104 -20.7873 -10
      vertex 44.3895 -22.0677 -10
    endloop
  endfacet
  facet normal 0 -1.22465e-16 -1
    outer loop
      vertex 33.303 -16.1679 -10
      vertex 44.3895 -22.0677 -10
      vertex 40 -22.5 -10
    endloop
  endfacet
  facet normal 0 -1.22465e-16 -1
    outer loop
      vertex 19.2127 -8.61038 -10
      vertex 31.3896 -20.7873 -10
      vertex 27.4997 -18.7081 -10
    endloop
  endfacet
  facet normal 0 -1.22465e-16 -1
    outer loop
      vertex 22.8363 3.41408 -10
      vertex 17.5 -6.7 -10
      vertex 23.8321 6.69696 -10
    endloop
  endfacet
  facet normal 0 -1.22465e-16 -1
    outer loop
      vertex 22.5 -1.22465e-15 -10
      vertex 17.5 -6.7 -10
      vertex 22.8363 3.41408 -10
    endloop
  endfacet
  facet normal 0 -1.22465e-16 -1
    outer loop
      vertex 22.8363 -3.41408 -10
      vertex 17.5 -6.7 -10
      vertex 22.5 -1.22465e-15 -10
    endloop
  endfacet
  facet normal 0 -1.22465e-16 -1
    outer loop
      vertex 54.5507 9.72248 -10
      vertex 60.7873 8.61038 -10
      vertex 56.1679 6.69696 -10
    endloop
  endfacet
  facet normal 0 -1.22465e-16 -1
    outer loop
      vertex 23.8321 -6.69696 -10
      vertex 18.6332 -6.7 -10
      vertex 17.5 -6.7 -10
    endloop
  endfacet
  facet normal 0 -1.22465e-16 -1
    outer loop
      vertex 25.4493 -9.72248 -10
      vertex 18.6332 -6.7 -10
      vertex 23.8321 -6.69696 -10
    endloop
  endfacet
  facet normal 0 -1.22465e-16 -1
    outer loop
      vertex 57.1637 3.41408 -10
      vertex 62.0677 4.38953 -10
      vertex 57.5 -1.22465e-15 -10
    endloop
  endfacet
  facet normal 0 -1.22465e-16 -1
    outer loop
      vertex 57.5 -1.22465e-15 -10
      vertex 62.5 -1.22465e-15 -10
      vertex 57.1637 -3.41408 -10
    endloop
  endfacet
  facet normal 0 -1.22465e-16 -1
    outer loop
      vertex 30.2775 -14.5507 -10
      vertex 33.303 -16.1679 -10
      vertex 40 -22.5 -10
    endloop
  endfacet
  facet normal 0 -1.22465e-16 -1
    outer loop
      vertex 40 -17.5 -10
      vertex 48.6104 -20.7873 -10
      vertex 36.5859 -17.1637 -10
    endloop
  endfacet
  facet normal 0 -1.22465e-16 -1
    outer loop
      vertex 43.4141 -17.1637 -10
      vertex 48.6104 -20.7873 -10
      vertex 40 -17.5 -10
    endloop
  endfacet
  facet normal 0 -1.22465e-16 -1
    outer loop
      vertex 46.697 -16.1679 -10
      vertex 52.5003 -18.7081 -10
      vertex 43.4141 -17.1637 -10
    endloop
  endfacet
  facet normal 0 -1.22465e-16 -1
    outer loop
      vertex 49.7225 -14.5507 -10
      vertex 55.9099 -15.9099 -10
      vertex 46.697 -16.1679 -10
    endloop
  endfacet
  facet normal 0 -1.22465e-16 -1
    outer loop
      vertex 43.4141 17.1637 -10
      vertex 48.6104 20.7873 -10
      vertex 46.697 16.1679 -10
    endloop
  endfacet
  facet normal 0 -1.22465e-16 -1
    outer loop
      vertex 33.303 16.1679 -10
      vertex 40 22.5 -10
      vertex 36.5859 17.1637 -10
    endloop
  endfacet
  facet normal 0 -1.22465e-16 -1
    outer loop
      vertex 40 17.5 -10
      vertex 44.3895 22.0677 -10
      vertex 43.4141 17.1637 -10
    endloop
  endfacet
  facet normal 0 -1.22465e-16 -1
    outer loop
      vertex 57.1637 -3.41408 -10
      vertex 62.0677 -4.38953 -10
      vertex 56.1679 -6.69696 -10
    endloop
  endfacet
  facet normal 0 -1.22465e-16 -1
    outer loop
      vertex 56.1679 -6.69696 -10
      vertex 60.7873 -8.61038 -10
      vertex 54.5507 -9.72248 -10
    endloop
  endfacet
  facet normal 0 -1.22465e-16 -1
    outer loop
      vertex 54.5507 -9.72248 -10
      vertex 58.7081 -12.5003 -10
      vertex 52.3744 -12.3744 -10
    endloop
  endfacet
  facet normal 0 -1.22465e-16 -1
    outer loop
      vertex 56.1679 6.69696 -10
      vertex 60.7873 8.61038 -10
      vertex 57.1637 3.41408 -10
    endloop
  endfacet
  facet normal 0 -1.22465e-16 -1
    outer loop
      vertex 52.3744 -12.3744 -10
      vertex 55.9099 -15.9099 -10
      vertex 49.7225 -14.5507 -10
    endloop
  endfacet
  facet normal 0 -1.22465e-16 -1
    outer loop
      vertex 46.697 16.1679 -10
      vertex 52.5003 18.7081 -10
      vertex 49.7225 14.5507 -10
    endloop
  endfacet
  facet normal 0 -1.22465e-16 -1
    outer loop
      vertex 23.8321 -6.69696 -10
      vertex 17.5 -6.7 -10
      vertex 22.8363 -3.41408 -10
    endloop
  endfacet
  facet normal 0 -1.22465e-16 -1
    outer loop
      vertex 49.7225 14.5507 -10
      vertex 55.9099 15.9099 -10
      vertex 52.3744 12.3744 -10
    endloop
  endfacet
  facet normal 0 -1.22465e-16 -1
    outer loop
      vertex 36.5859 17.1637 -10
      vertex 40 22.5 -10
      vertex 40 17.5 -10
    endloop
  endfacet
  facet normal 0 -1.22465e-16 -1
    outer loop
      vertex 52.3744 12.3744 -10
      vertex 58.7081 12.5003 -10
      vertex 54.5507 9.72248 -10
    endloop
  endfacet
  facet normal 0 -1.22465e-16 -1
    outer loop
      vertex 30.2775 14.5507 -10
      vertex 35.6105 22.0677 -10
      vertex 33.303 16.1679 -10
    endloop
  endfacet
  facet normal 0 -1.22465e-16 -1
    outer loop
      vertex 27.6256 12.3744 -10
      vertex 31.3896 20.7873 -10
      vertex 30.2775 14.5507 -10
    endloop
  endfacet
  facet normal 0 -1.22465e-16 -1
    outer loop
      vertex 25.4493 9.72248 -10
      vertex 31.3896 20.7873 -10
      vertex 27.6256 12.3744 -10
    endloop
  endfacet
  facet normal 0 -1.22465e-16 -1
    outer loop
      vertex 23.8321 6.69696 -10
      vertex 27.4997 18.7081 -10
      vertex 25.4493 9.72248 -10
    endloop
  endfacet
  facet normal 0 -1.22465e-16 -1
    outer loop
      vertex 17.5 -6.7 -10
      vertex 27.4997 18.7081 -10
      vertex 23.8321 6.69696 -10
    endloop
  endfacet
  facet normal 0 -1.22465e-16 -1
    outer loop
      vertex 19.2127 -8.61038 -10
      vertex 27.4997 -18.7081 -10
      vertex 24.0901 -15.9099 -10
    endloop
  endfacet
  facet normal 0 -1.22465e-16 -1
    outer loop
      vertex 19.2127 -8.61038 -10
      vertex 24.0901 -15.9099 -10
      vertex 21.2919 -12.5003 -10
    endloop
  endfacet
  facet normal 0 -1.22465e-16 -1
    outer loop
      vertex 27.6256 -12.3744 -10
      vertex 18.6332 -6.7 -10
      vertex 25.4493 -9.72248 -10
    endloop
  endfacet
  facet normal 0 -1.22465e-16 -1
    outer loop
      vertex 36.5859 -17.1637 -10
      vertex 44.3895 -22.0677 -10
      vertex 33.303 -16.1679 -10
    endloop
  endfacet
  facet normal 0 -1.22465e-16 -1
    outer loop
      vertex 18.6332 -6.7 -10
      vertex 27.6256 -12.3744 -10
      vertex 30.2775 -14.5507 -10
    endloop
  endfacet
  facet normal 0 -1.22465e-16 -1
    outer loop
      vertex 18.6332 -6.7 -10
      vertex 30.2775 -14.5507 -10
      vertex 40 -22.5 -10
    endloop
  endfacet
  facet normal 0 -1.22465e-16 -1
    outer loop
      vertex 18.6332 -6.7 -10
      vertex 40 -22.5 -10
      vertex 35.6105 -22.0677 -10
    endloop
  endfacet
  facet normal 0 -1.22465e-16 -1
    outer loop
      vertex 18.6332 -6.7 -10
      vertex 35.6105 -22.0677 -10
      vertex 31.3896 -20.7873 -10
    endloop
  endfacet
  facet normal 0 -1.22465e-16 -1
    outer loop
      vertex 18.6332 -6.7 -10
      vertex 31.3896 -20.7873 -10
      vertex 19.2127 -8.61038 -10
    endloop
  endfacet
  facet normal -1 0 0
    outer loop
      vertex 17.5 -6.7 -10
      vertex 17.5 -6.7 -9
      vertex 17.5 6.7 -10
    endloop
  endfacet
  facet normal -1 0 0
    outer loop
      vertex 17.5 6.7 -10
      vertex 17.5 -6.7 -9
      vertex 17.5 6.7 -9
    endloop
  endfacet
  facet normal 0 -1.22465e-16 -1
    outer loop
      vertex 17.5 -6.7 -9
      vertex 12.5 -6.7 -9
      vertex 17.5 6.7 -9
    endloop
  endfacet
  facet normal 0 -1.22465e-16 -1
    outer loop
      vertex 17.5 6.7 -9
      vertex 12.5 -6.7 -9
      vertex 12.5 6.7 -9
    endloop
  endfacet
  facet normal -0.95694 0.290285 -3.55496e-17
    outer loop
      vertex 18.6332 6.7 -3
      vertex 19.2127 8.61038 -3
      vertex 18.6332 6.7 -10
    endloop
  endfacet
  facet normal -0.95694 0.290285 -3.55496e-17
    outer loop
      vertex 18.6332 6.7 -10
      vertex 19.2127 8.61038 -3
      vertex 19.2127 8.61038 -10
    endloop
  endfacet
  facet normal 0 1.22465e-16 1
    outer loop
      vertex 18.6332 6.7 -3
      vertex 4.2 6.7 -3
      vertex 4.2 6 -3
    endloop
  endfacet
  facet normal 0 1.22465e-16 1
    outer loop
      vertex 19.5 6 -3
      vertex 18.6332 6.7 -3
      vertex 4.2 6 -3
    endloop
  endfacet
  facet normal 0 1.22465e-16 1
    outer loop
      vertex 4.2 -6 -3
      vertex 19.5 5.3 -3
      vertex 4.2 5.3 -3
    endloop
  endfacet
  facet normal 0 1.22465e-16 1
    outer loop
      vertex 19.3054 4.11641 -3
      vertex 19.5 5.3 -3
      vertex 4.2 -6 -3
    endloop
  endfacet
  facet normal 0 1.22465e-16 1
    outer loop
      vertex 21.2919 -12.5003 -3
      vertex 19.5 -6 -3
      vertex 19.5 -6.7 -3
    endloop
  endfacet
  facet normal 0 1.22465e-16 1
    outer loop
      vertex 19.2127 -8.61038 -3
      vertex 19.5 -6.7 -3
      vertex 18.6332 -6.7 -3
    endloop
  endfacet
  facet normal 0 1.22465e-16 1
    outer loop
      vertex 21.2919 -12.5003 -3
      vertex 19.5 -6.7 -3
      vertex 19.2127 -8.61038 -3
    endloop
  endfacet
  facet normal 0 1.22465e-16 1
    outer loop
      vertex 57.544 11.7225 -3
      vertex 59.4939 8.07462 -3
      vertex 60.7873 8.61038 -3
    endloop
  endfacet
  facet normal 0 1.22465e-16 1
    outer loop
      vertex 27.4997 18.7081 -3
      vertex 24.0901 15.9099 -3
      vertex 35.6105 22.0677 -3
    endloop
  endfacet
  facet normal 0 1.22465e-16 1
    outer loop
      vertex 24.0901 15.9099 -3
      vertex 25.08 14.92 -3
      vertex 28.2775 17.544 -3
    endloop
  endfacet
  facet normal 0 1.22465e-16 1
    outer loop
      vertex 60.6946 4.11641 -3
      vertex 61.1 -3.67394e-16 -3
      vertex 62.5 -3.67394e-16 -3
    endloop
  endfacet
  facet normal 0 1.22465e-16 1
    outer loop
      vertex 61.1 -3.67394e-16 -3
      vertex 60.6946 -4.11641 -3
      vertex 62.0677 -4.38953 -3
    endloop
  endfacet
  facet normal 0 1.22465e-16 1
    outer loop
      vertex 59.4939 -8.07462 -3
      vertex 57.544 -11.7225 -3
      vertex 60.7873 -8.61038 -3
    endloop
  endfacet
  facet normal 0 1.22465e-16 1
    outer loop
      vertex 40 21.1 -3
      vertex 44.1164 20.6946 -3
      vertex 44.3895 22.0677 -3
    endloop
  endfacet
  facet normal 0 1.22465e-16 1
    outer loop
      vertex 31.3896 20.7873 -3
      vertex 27.4997 18.7081 -3
      vertex 35.6105 22.0677 -3
    endloop
  endfacet
  facet normal 0 1.22465e-16 1
    outer loop
      vertex 44.1164 20.6946 -3
      vertex 48.0746 19.4939 -3
      vertex 48.6104 20.7873 -3
    endloop
  endfacet
  facet normal 0 1.22465e-16 1
    outer loop
      vertex 48.0746 19.4939 -3
      vertex 51.7225 17.544 -3
      vertex 52.5003 18.7081 -3
    endloop
  endfacet
  facet normal 0 1.22465e-16 1
    outer loop
      vertex 19.3054 -4.11641 -3
      vertex 18.9 -3.67394e-16 -3
      vertex 4.2 -6 -3
    endloop
  endfacet
  facet normal 0 1.22465e-16 1
    outer loop
      vertex 18.9 -3.67394e-16 -3
      vertex 19.3054 4.11641 -3
      vertex 4.2 -6 -3
    endloop
  endfacet
  facet normal 0 1.22465e-16 1
    outer loop
      vertex 59.4939 8.07462 -3
      vertex 60.6946 4.11641 -3
      vertex 62.0677 4.38953 -3
    endloop
  endfacet
  facet normal 0 1.22465e-16 1
    outer loop
      vertex 51.7225 17.544 -3
      vertex 54.92 14.92 -3
      vertex 55.9099 15.9099 -3
    endloop
  endfacet
  facet normal 0 1.22465e-16 1
    outer loop
      vertex 31.9254 19.4939 -3
      vertex 35.8836 20.6946 -3
      vertex 40 22.5 -3
    endloop
  endfacet
  facet normal 0 1.22465e-16 1
    outer loop
      vertex 21.2919 12.5003 -3
      vertex 19.2127 8.61038 -3
      vertex 22.456 11.7225 -3
    endloop
  endfacet
  facet normal 0 1.22465e-16 1
    outer loop
      vertex 35.6105 22.0677 -3
      vertex 31.9254 19.4939 -3
      vertex 40 22.5 -3
    endloop
  endfacet
  facet normal 0 1.22465e-16 1
    outer loop
      vertex 35.6105 22.0677 -3
      vertex 24.0901 15.9099 -3
      vertex 31.9254 19.4939 -3
    endloop
  endfacet
  facet normal 0 1.22465e-16 1
    outer loop
      vertex 40 22.5 -3
      vertex 40 21.1 -3
      vertex 44.3895 22.0677 -3
    endloop
  endfacet
  facet normal 0 1.22465e-16 1
    outer loop
      vertex 44.3895 22.0677 -3
      vertex 44.1164 20.6946 -3
      vertex 48.6104 20.7873 -3
    endloop
  endfacet
  facet normal 0 1.22465e-16 1
    outer loop
      vertex 28.2775 17.544 -3
      vertex 31.9254 19.4939 -3
      vertex 24.0901 15.9099 -3
    endloop
  endfacet
  facet normal 0 1.22465e-16 1
    outer loop
      vertex 48.6104 20.7873 -3
      vertex 48.0746 19.4939 -3
      vertex 52.5003 18.7081 -3
    endloop
  endfacet
  facet normal 0 1.22465e-16 1
    outer loop
      vertex 52.5003 18.7081 -3
      vertex 51.7225 17.544 -3
      vertex 55.9099 15.9099 -3
    endloop
  endfacet
  facet normal 0 1.22465e-16 1
    outer loop
      vertex 55.9099 15.9099 -3
      vertex 54.92 14.92 -3
      vertex 58.7081 12.5003 -3
    endloop
  endfacet
  facet normal 0 1.22465e-16 1
    outer loop
      vertex 54.92 14.92 -3
      vertex 57.544 11.7225 -3
      vertex 58.7081 12.5003 -3
    endloop
  endfacet
  facet normal 0 1.22465e-16 1
    outer loop
      vertex 58.7081 12.5003 -3
      vertex 57.544 11.7225 -3
      vertex 60.7873 8.61038 -3
    endloop
  endfacet
  facet normal 0 1.22465e-16 1
    outer loop
      vertex 60.7873 8.61038 -3
      vertex 59.4939 8.07462 -3
      vertex 62.0677 4.38953 -3
    endloop
  endfacet
  facet normal 0 1.22465e-16 1
    outer loop
      vertex 20.5061 -8.07462 -3
      vertex 19.3054 -4.11641 -3
      vertex 19.5 -6 -3
    endloop
  endfacet
  facet normal 0 1.22465e-16 1
    outer loop
      vertex 62.0677 4.38953 -3
      vertex 60.6946 4.11641 -3
      vertex 62.5 -3.67394e-16 -3
    endloop
  endfacet
  facet normal 0 1.22465e-16 1
    outer loop
      vertex 20.5061 8.07462 -3
      vertex 22.456 11.7225 -3
      vertex 19.2127 8.61038 -3
    endloop
  endfacet
  facet normal 0 1.22465e-16 1
    outer loop
      vertex 62.5 -3.67394e-16 -3
      vertex 61.1 -3.67394e-16 -3
      vertex 62.0677 -4.38953 -3
    endloop
  endfacet
  facet normal 0 1.22465e-16 1
    outer loop
      vertex 62.0677 -4.38953 -3
      vertex 60.6946 -4.11641 -3
      vertex 60.7873 -8.61038 -3
    endloop
  endfacet
  facet normal 0 1.22465e-16 1
    outer loop
      vertex 60.6946 -4.11641 -3
      vertex 59.4939 -8.07462 -3
      vertex 60.7873 -8.61038 -3
    endloop
  endfacet
  facet normal 0 1.22465e-16 1
    outer loop
      vertex 60.7873 -8.61038 -3
      vertex 57.544 -11.7225 -3
      vertex 58.7081 -12.5003 -3
    endloop
  endfacet
  facet normal 0 1.22465e-16 1
    outer loop
      vertex 58.7081 -12.5003 -3
      vertex 54.92 -14.92 -3
      vertex 55.9099 -15.9099 -3
    endloop
  endfacet
  facet normal 0 1.22465e-16 1
    outer loop
      vertex 55.9099 -15.9099 -3
      vertex 51.7225 -17.544 -3
      vertex 52.5003 -18.7081 -3
    endloop
  endfacet
  facet normal 0 1.22465e-16 1
    outer loop
      vertex 52.5003 -18.7081 -3
      vertex 48.0746 -19.4939 -3
      vertex 48.6104 -20.7873 -3
    endloop
  endfacet
  facet normal 0 1.22465e-16 1
    outer loop
      vertex 48.6104 -20.7873 -3
      vertex 44.1164 -20.6946 -3
      vertex 44.3895 -22.0677 -3
    endloop
  endfacet
  facet normal 0 1.22465e-16 1
    outer loop
      vertex 44.3895 -22.0677 -3
      vertex 40 -21.1 -3
      vertex 40 -22.5 -3
    endloop
  endfacet
  facet normal 0 1.22465e-16 1
    outer loop
      vertex 40 -22.5 -3
      vertex 35.8836 -20.6946 -3
      vertex 35.6105 -22.0677 -3
    endloop
  endfacet
  facet normal 0 1.22465e-16 1
    outer loop
      vertex 35.6105 -22.0677 -3
      vertex 31.9254 -19.4939 -3
      vertex 31.3896 -20.7873 -3
    endloop
  endfacet
  facet normal 0 1.22465e-16 1
    outer loop
      vertex 31.3896 -20.7873 -3
      vertex 28.2775 -17.544 -3
      vertex 27.4997 -18.7081 -3
    endloop
  endfacet
  facet normal 0 1.22465e-16 1
    outer loop
      vertex 27.4997 -18.7081 -3
      vertex 25.08 -14.92 -3
      vertex 24.0901 -15.9099 -3
    endloop
  endfacet
  facet normal 0 1.22465e-16 1
    outer loop
      vertex 24.0901 -15.9099 -3
      vertex 22.456 -11.7225 -3
      vertex 21.2919 -12.5003 -3
    endloop
  endfacet
  facet normal 0 1.22465e-16 1
    outer loop
      vertex 21.2919 -12.5003 -3
      vertex 20.5061 -8.07462 -3
      vertex 19.5 -6 -3
    endloop
  endfacet
  facet normal 0 1.22465e-16 1
    outer loop
      vertex 19.5 -6 -3
      vertex 19.3054 -4.11641 -3
      vertex 4.2 -6 -3
    endloop
  endfacet
  facet normal 0 1.22465e-16 1
    outer loop
      vertex 22.456 11.7225 -3
      vertex 25.08 14.92 -3
      vertex 21.2919 12.5003 -3
    endloop
  endfacet
  facet normal 0 1.22465e-16 1
    outer loop
      vertex 19.2127 8.61038 -3
      vertex 18.6332 6.7 -3
      vertex 20.5061 8.07462 -3
    endloop
  endfacet
  facet normal 0 1.22465e-16 1
    outer loop
      vertex 35.8836 20.6946 -3
      vertex 40 21.1 -3
      vertex 40 22.5 -3
    endloop
  endfacet
  facet normal 0 1.22465e-16 1
    outer loop
      vertex 24.0901 15.9099 -3
      vertex 21.2919 12.5003 -3
      vertex 25.08 14.92 -3
    endloop
  endfacet
  facet normal 0 1.22465e-16 1
    outer loop
      vertex 57.544 -11.7225 -3
      vertex 54.92 -14.92 -3
      vertex 58.7081 -12.5003 -3
    endloop
  endfacet
  facet normal 0 1.22465e-16 1
    outer loop
      vertex 54.92 -14.92 -3
      vertex 51.7225 -17.544 -3
      vertex 55.9099 -15.9099 -3
    endloop
  endfacet
  facet normal 0 1.22465e-16 1
    outer loop
      vertex 51.7225 -17.544 -3
      vertex 48.0746 -19.4939 -3
      vertex 52.5003 -18.7081 -3
    endloop
  endfacet
  facet normal 0 1.22465e-16 1
    outer loop
      vertex 48.0746 -19.4939 -3
      vertex 44.1164 -20.6946 -3
      vertex 48.6104 -20.7873 -3
    endloop
  endfacet
  facet normal 0 1.22465e-16 1
    outer loop
      vertex 44.1164 -20.6946 -3
      vertex 40 -21.1 -3
      vertex 44.3895 -22.0677 -3
    endloop
  endfacet
  facet normal 0 1.22465e-16 1
    outer loop
      vertex 40 -21.1 -3
      vertex 35.8836 -20.6946 -3
      vertex 40 -22.5 -3
    endloop
  endfacet
  facet normal 0 1.22465e-16 1
    outer loop
      vertex 35.8836 -20.6946 -3
      vertex 31.9254 -19.4939 -3
      vertex 35.6105 -22.0677 -3
    endloop
  endfacet
  facet normal 0 1.22465e-16 1
    outer loop
      vertex 31.9254 -19.4939 -3
      vertex 28.2775 -17.544 -3
      vertex 31.3896 -20.7873 -3
    endloop
  endfacet
  facet normal 0 1.22465e-16 1
    outer loop
      vertex 28.2775 -17.544 -3
      vertex 25.08 -14.92 -3
      vertex 27.4997 -18.7081 -3
    endloop
  endfacet
  facet normal 0 1.22465e-16 1
    outer loop
      vertex 25.08 -14.92 -3
      vertex 22.456 -11.7225 -3
      vertex 24.0901 -15.9099 -3
    endloop
  endfacet
  facet normal 0 1.22465e-16 1
    outer loop
      vertex 22.456 -11.7225 -3
      vertex 20.5061 -8.07462 -3
      vertex 21.2919 -12.5003 -3
    endloop
  endfacet
  facet normal 0 1.22465e-16 1
    outer loop
      vertex 19.5 6 -3
      vertex 20.5061 8.07462 -3
      vertex 18.6332 6.7 -3
    endloop
  endfacet
  facet normal 0 1.22465e-16 1
    outer loop
      vertex 19.5 5.3 -3
      vertex 20.5061 8.07462 -3
      vertex 19.5 6 -3
    endloop
  endfacet
  facet normal 0 1.22465e-16 1
    outer loop
      vertex 19.3054 4.11641 -3
      vertex 20.5061 8.07462 -3
      vertex 19.5 5.3 -3
    endloop
  endfacet
  facet normal 0 9.95799e-17 -1
    outer loop
      vertex 4.2 6.7 -3
      vertex 19.5 6.7 -3
      vertex 4.2 6 -3
    endloop
  endfacet
  facet normal 0 9.95799e-17 -1
    outer loop
      vertex 4.2 6 -3
      vertex 19.5 6.7 -3
      vertex 19.5 6 -3
    endloop
  endfacet
  facet normal 0 1 9.95799e-17
    outer loop
      vertex 19.5 6.7 -3
      vertex 4.2 6.7 -3
      vertex 4.2 6.7 8.36571
    endloop
  endfacet
  facet normal 0.596324 -7.99372e-17 0.802744
    outer loop
      vertex 19.5 6.7 -3
      vertex 4.2 6.7 8.36571
      vertex 4.2 5.3 8.36571
    endloop
  endfacet
  facet normal 0.596324 -7.99372e-17 0.802744
    outer loop
      vertex 19.5 6 -3
      vertex 19.5 6.7 -3
      vertex 19.5 5.3 -3
    endloop
  endfacet
  facet normal 0.596324 -7.99372e-17 0.802744
    outer loop
      vertex 19.5 5.3 -3
      vertex 19.5 6.7 -3
      vertex 4.2 5.3 8.36571
    endloop
  endfacet
  facet normal 0 -1 -9.95799e-17
    outer loop
      vertex 4.2 5.3 8.36571
      vertex 4.2 5.3 -3
      vertex 19.5 5.3 -3
    endloop
  endfacet
  facet normal 0 9.95799e-17 -1
    outer loop
      vertex 4.2 -5.3 -3
      vertex 19.5 -5.3 -3
      vertex 4.2 -6 -3
    endloop
  endfacet
  facet normal 0 9.95799e-17 -1
    outer loop
      vertex 4.2 -6 -3
      vertex 19.5 -5.3 -3
      vertex 19.5 -6 -3
    endloop
  endfacet
  facet normal 0 1 9.95799e-17
    outer loop
      vertex 19.5 -5.3 -3
      vertex 4.2 -5.3 -3
      vertex 4.2 -5.3 8.36571
    endloop
  endfacet
  facet normal 0 -1 -9.95799e-17
    outer loop
      vertex 2 -6.7 10
      vertex 2 -6.7 -3
      vertex 18.6332 -6.7 -3
    endloop
  endfacet
  facet normal 0 -1 -9.95799e-17
    outer loop
      vertex 19.5 -6.7 -3
      vertex 2 -6.7 10
      vertex 18.6332 -6.7 -3
    endloop
  endfacet
  facet normal -0.881921 -0.471397 5.77294e-17
    outer loop
      vertex 19.2127 -8.61038 -3
      vertex 19.2127 -8.61038 -10
      vertex 21.2919 -12.5003 -3
    endloop
  endfacet
  facet normal -0.881921 -0.471397 5.77294e-17
    outer loop
      vertex 21.2919 -12.5003 -3
      vertex 19.2127 -8.61038 -10
      vertex 21.2919 -12.5003 -10
    endloop
  endfacet
  facet normal -0.773011 -0.634393 7.76907e-17
    outer loop
      vertex 21.2919 -12.5003 -3
      vertex 21.2919 -12.5003 -10
      vertex 24.0901 -15.9099 -3
    endloop
  endfacet
  facet normal -0.773011 -0.634393 7.76907e-17
    outer loop
      vertex 24.0901 -15.9099 -3
      vertex 21.2919 -12.5003 -10
      vertex 24.0901 -15.9099 -10
    endloop
  endfacet
  facet normal -0.634393 -0.773011 9.46665e-17
    outer loop
      vertex 27.4997 -18.7081 -3
      vertex 24.0901 -15.9099 -3
      vertex 24.0901 -15.9099 -10
    endloop
  endfacet
  facet normal -0.634393 -0.773011 9.46665e-17
    outer loop
      vertex 27.4997 -18.7081 -10
      vertex 27.4997 -18.7081 -3
      vertex 24.0901 -15.9099 -10
    endloop
  endfacet
  facet normal -0.471397 -0.881921 1.08004e-16
    outer loop
      vertex 31.3896 -20.7873 -3
      vertex 27.4997 -18.7081 -3
      vertex 27.4997 -18.7081 -10
    endloop
  endfacet
  facet normal -0.471397 -0.881921 1.08004e-16
    outer loop
      vertex 31.3896 -20.7873 -10
      vertex 31.3896 -20.7873 -3
      vertex 27.4997 -18.7081 -10
    endloop
  endfacet
  facet normal -0.290285 -0.95694 1.17191e-16
    outer loop
      vertex 35.6105 -22.0677 -3
      vertex 31.3896 -20.7873 -3
      vertex 31.3896 -20.7873 -10
    endloop
  endfacet
  facet normal -0.290285 -0.95694 1.17191e-16
    outer loop
      vertex 35.6105 -22.0677 -10
      vertex 35.6105 -22.0677 -3
      vertex 31.3896 -20.7873 -10
    endloop
  endfacet
  facet normal -0.0980171 -0.995185 1.21875e-16
    outer loop
      vertex 40 -22.5 -3
      vertex 35.6105 -22.0677 -3
      vertex 35.6105 -22.0677 -10
    endloop
  endfacet
  facet normal -0.0980171 -0.995185 1.21875e-16
    outer loop
      vertex 40 -22.5 -10
      vertex 40 -22.5 -3
      vertex 35.6105 -22.0677 -10
    endloop
  endfacet
  facet normal 0.0980171 -0.995185 1.21875e-16
    outer loop
      vertex 44.3895 -22.0677 -3
      vertex 40 -22.5 -3
      vertex 40 -22.5 -10
    endloop
  endfacet
  facet normal 0.0980171 -0.995185 1.21875e-16
    outer loop
      vertex 44.3895 -22.0677 -10
      vertex 44.3895 -22.0677 -3
      vertex 40 -22.5 -10
    endloop
  endfacet
  facet normal 0.290285 -0.95694 1.17191e-16
    outer loop
      vertex 48.6104 -20.7873 -3
      vertex 44.3895 -22.0677 -3
      vertex 44.3895 -22.0677 -10
    endloop
  endfacet
  facet normal 0.290285 -0.95694 1.17191e-16
    outer loop
      vertex 48.6104 -20.7873 -10
      vertex 48.6104 -20.7873 -3
      vertex 44.3895 -22.0677 -10
    endloop
  endfacet
  facet normal 0.471397 -0.881921 1.08004e-16
    outer loop
      vertex 52.5003 -18.7081 -3
      vertex 48.6104 -20.7873 -3
      vertex 48.6104 -20.7873 -10
    endloop
  endfacet
  facet normal 0.471397 -0.881921 1.08004e-16
    outer loop
      vertex 52.5003 -18.7081 -10
      vertex 52.5003 -18.7081 -3
      vertex 48.6104 -20.7873 -10
    endloop
  endfacet
  facet normal 0.634393 -0.773011 9.46665e-17
    outer loop
      vertex 55.9099 -15.9099 -3
      vertex 52.5003 -18.7081 -3
      vertex 52.5003 -18.7081 -10
    endloop
  endfacet
  facet normal 0.634393 -0.773011 9.46665e-17
    outer loop
      vertex 55.9099 -15.9099 -10
      vertex 55.9099 -15.9099 -3
      vertex 52.5003 -18.7081 -10
    endloop
  endfacet
  facet normal 0.773011 -0.634393 7.76907e-17
    outer loop
      vertex 58.7081 -12.5003 -3
      vertex 55.9099 -15.9099 -3
      vertex 55.9099 -15.9099 -10
    endloop
  endfacet
  facet normal 0.773011 -0.634393 7.76907e-17
    outer loop
      vertex 58.7081 -12.5003 -10
      vertex 58.7081 -12.5003 -3
      vertex 55.9099 -15.9099 -10
    endloop
  endfacet
  facet normal 0.881921 -0.471397 5.77294e-17
    outer loop
      vertex 60.7873 -8.61038 -3
      vertex 58.7081 -12.5003 -3
      vertex 58.7081 -12.5003 -10
    endloop
  endfacet
  facet normal 0.881921 -0.471397 5.77294e-17
    outer loop
      vertex 60.7873 -8.61038 -10
      vertex 60.7873 -8.61038 -3
      vertex 58.7081 -12.5003 -10
    endloop
  endfacet
  facet normal 0.95694 -0.290285 3.55496e-17
    outer loop
      vertex 62.0677 -4.38953 -3
      vertex 60.7873 -8.61038 -3
      vertex 60.7873 -8.61038 -10
    endloop
  endfacet
  facet normal 0.95694 -0.290285 3.55496e-17
    outer loop
      vertex 62.0677 -4.38953 -10
      vertex 62.0677 -4.38953 -3
      vertex 60.7873 -8.61038 -10
    endloop
  endfacet
  facet normal 0.995185 -0.0980171 1.20036e-17
    outer loop
      vertex 62.5 -3.67394e-16 -3
      vertex 62.0677 -4.38953 -3
      vertex 62.0677 -4.38953 -10
    endloop
  endfacet
  facet normal 0.995185 -0.0980171 1.20036e-17
    outer loop
      vertex 62.5 -1.22465e-15 -10
      vertex 62.5 -3.67394e-16 -3
      vertex 62.0677 -4.38953 -10
    endloop
  endfacet
  facet normal 0.995185 0.0980171 -1.20036e-17
    outer loop
      vertex 62.0677 4.38953 -10
      vertex 62.0677 4.38953 -3
      vertex 62.5 -3.67394e-16 -3
    endloop
  endfacet
  facet normal 0.995185 0.0980171 -1.20036e-17
    outer loop
      vertex 62.5 -1.22465e-15 -10
      vertex 62.0677 4.38953 -10
      vertex 62.5 -3.67394e-16 -3
    endloop
  endfacet
  facet normal 0.95694 0.290285 -3.55496e-17
    outer loop
      vertex 60.7873 8.61038 -10
      vertex 60.7873 8.61038 -3
      vertex 62.0677 4.38953 -3
    endloop
  endfacet
  facet normal 0.95694 0.290285 -3.55496e-17
    outer loop
      vertex 62.0677 4.38953 -10
      vertex 60.7873 8.61038 -10
      vertex 62.0677 4.38953 -3
    endloop
  endfacet
  facet normal 0.881921 0.471397 -5.77294e-17
    outer loop
      vertex 58.7081 12.5003 -10
      vertex 58.7081 12.5003 -3
      vertex 60.7873 8.61038 -3
    endloop
  endfacet
  facet normal 0.881921 0.471397 -5.77294e-17
    outer loop
      vertex 60.7873 8.61038 -10
      vertex 58.7081 12.5003 -10
      vertex 60.7873 8.61038 -3
    endloop
  endfacet
  facet normal 0.773011 0.634393 -7.76907e-17
    outer loop
      vertex 55.9099 15.9099 -10
      vertex 55.9099 15.9099 -3
      vertex 58.7081 12.5003 -3
    endloop
  endfacet
  facet normal 0.773011 0.634393 -7.76907e-17
    outer loop
      vertex 58.7081 12.5003 -10
      vertex 55.9099 15.9099 -10
      vertex 58.7081 12.5003 -3
    endloop
  endfacet
  facet normal 0.634393 0.773011 -9.46665e-17
    outer loop
      vertex 52.5003 18.7081 -3
      vertex 55.9099 15.9099 -3
      vertex 52.5003 18.7081 -10
    endloop
  endfacet
  facet normal 0.634393 0.773011 -9.46665e-17
    outer loop
      vertex 52.5003 18.7081 -10
      vertex 55.9099 15.9099 -3
      vertex 55.9099 15.9099 -10
    endloop
  endfacet
  facet normal 0.471397 0.881921 -1.08004e-16
    outer loop
      vertex 48.6104 20.7873 -3
      vertex 52.5003 18.7081 -3
      vertex 48.6104 20.7873 -10
    endloop
  endfacet
  facet normal 0.471397 0.881921 -1.08004e-16
    outer loop
      vertex 48.6104 20.7873 -10
      vertex 52.5003 18.7081 -3
      vertex 52.5003 18.7081 -10
    endloop
  endfacet
  facet normal 0.290285 0.95694 -1.17191e-16
    outer loop
      vertex 44.3895 22.0677 -3
      vertex 48.6104 20.7873 -3
      vertex 44.3895 22.0677 -10
    endloop
  endfacet
  facet normal 0.290285 0.95694 -1.17191e-16
    outer loop
      vertex 44.3895 22.0677 -10
      vertex 48.6104 20.7873 -3
      vertex 48.6104 20.7873 -10
    endloop
  endfacet
  facet normal 0.0980171 0.995185 -1.21875e-16
    outer loop
      vertex 40 22.5 -3
      vertex 44.3895 22.0677 -3
      vertex 40 22.5 -10
    endloop
  endfacet
  facet normal 0.0980171 0.995185 -1.21875e-16
    outer loop
      vertex 40 22.5 -10
      vertex 44.3895 22.0677 -3
      vertex 44.3895 22.0677 -10
    endloop
  endfacet
  facet normal -0.0980171 0.995185 -1.21875e-16
    outer loop
      vertex 35.6105 22.0677 -3
      vertex 40 22.5 -3
      vertex 35.6105 22.0677 -10
    endloop
  endfacet
  facet normal -0.0980171 0.995185 -1.21875e-16
    outer loop
      vertex 35.6105 22.0677 -10
      vertex 40 22.5 -3
      vertex 40 22.5 -10
    endloop
  endfacet
  facet normal -0.290285 0.95694 -1.17191e-16
    outer loop
      vertex 31.3896 20.7873 -3
      vertex 35.6105 22.0677 -3
      vertex 31.3896 20.7873 -10
    endloop
  endfacet
  facet normal -0.290285 0.95694 -1.17191e-16
    outer loop
      vertex 31.3896 20.7873 -10
      vertex 35.6105 22.0677 -3
      vertex 35.6105 22.0677 -10
    endloop
  endfacet
  facet normal -0.471397 0.881921 -1.08004e-16
    outer loop
      vertex 27.4997 18.7081 -3
      vertex 31.3896 20.7873 -3
      vertex 27.4997 18.7081 -10
    endloop
  endfacet
  facet normal -0.471397 0.881921 -1.08004e-16
    outer loop
      vertex 27.4997 18.7081 -10
      vertex 31.3896 20.7873 -3
      vertex 31.3896 20.7873 -10
    endloop
  endfacet
  facet normal -0.634393 0.773011 -9.46665e-17
    outer loop
      vertex 24.0901 15.9099 -3
      vertex 27.4997 18.7081 -3
      vertex 24.0901 15.9099 -10
    endloop
  endfacet
  facet normal -0.634393 0.773011 -9.46665e-17
    outer loop
      vertex 24.0901 15.9099 -10
      vertex 27.4997 18.7081 -3
      vertex 27.4997 18.7081 -10
    endloop
  endfacet
  facet normal -0.773011 0.634393 -7.76907e-17
    outer loop
      vertex 21.2919 12.5003 -3
      vertex 24.0901 15.9099 -3
      vertex 21.2919 12.5003 -10
    endloop
  endfacet
  facet normal -0.773011 0.634393 -7.76907e-17
    outer loop
      vertex 21.2919 12.5003 -10
      vertex 24.0901 15.9099 -3
      vertex 24.0901 15.9099 -10
    endloop
  endfacet
  facet normal -0.881921 0.471397 -5.77294e-17
    outer loop
      vertex 19.2127 8.61038 -3
      vertex 21.2919 12.5003 -3
      vertex 19.2127 8.61038 -10
    endloop
  endfacet
  facet normal -0.881921 0.471397 -5.77294e-17
    outer loop
      vertex 19.2127 8.61038 -10
      vertex 21.2919 12.5003 -3
      vertex 21.2919 12.5003 -10
    endloop
  endfacet
  facet normal 0.995185 -0.0980172 1.20037e-17
    outer loop
      vertex 22.5 -1.22465e-15 -10
      vertex 22.8363 3.41408 -10
      vertex 22.8363 3.41408 -9
    endloop
  endfacet
  facet normal 0.995185 -0.0980172 1.20037e-17
    outer loop
      vertex 22.5 -1.10218e-15 -9
      vertex 22.5 -1.22465e-15 -10
      vertex 22.8363 3.41408 -9
    endloop
  endfacet
  facet normal 0.95694 -0.290285 3.55496e-17
    outer loop
      vertex 22.8363 3.41408 -10
      vertex 23.8321 6.69696 -10
      vertex 23.8321 6.69696 -9
    endloop
  endfacet
  facet normal 0.95694 -0.290285 3.55496e-17
    outer loop
      vertex 22.8363 3.41408 -9
      vertex 22.8363 3.41408 -10
      vertex 23.8321 6.69696 -9
    endloop
  endfacet
  facet normal 0.881921 -0.471397 5.77295e-17
    outer loop
      vertex 23.8321 6.69696 -10
      vertex 25.4493 9.72248 -10
      vertex 25.4493 9.72248 -9
    endloop
  endfacet
  facet normal 0.881921 -0.471397 5.77295e-17
    outer loop
      vertex 23.8321 6.69696 -9
      vertex 23.8321 6.69696 -10
      vertex 25.4493 9.72248 -9
    endloop
  endfacet
  facet normal 0.773011 -0.634393 7.76908e-17
    outer loop
      vertex 25.4493 9.72248 -10
      vertex 27.6256 12.3744 -10
      vertex 27.6256 12.3744 -9
    endloop
  endfacet
  facet normal 0.773011 -0.634393 7.76908e-17
    outer loop
      vertex 25.4493 9.72248 -9
      vertex 25.4493 9.72248 -10
      vertex 27.6256 12.3744 -9
    endloop
  endfacet
  facet normal 0.634393 -0.773011 9.46665e-17
    outer loop
      vertex 27.6256 12.3744 -10
      vertex 30.2775 14.5507 -10
      vertex 30.2775 14.5507 -9
    endloop
  endfacet
  facet normal 0.634393 -0.773011 9.46665e-17
    outer loop
      vertex 27.6256 12.3744 -9
      vertex 27.6256 12.3744 -10
      vertex 30.2775 14.5507 -9
    endloop
  endfacet
  facet normal 0.471397 -0.881921 1.08004e-16
    outer loop
      vertex 30.2775 14.5507 -10
      vertex 33.303 16.1679 -10
      vertex 33.303 16.1679 -9
    endloop
  endfacet
  facet normal 0.471397 -0.881921 1.08004e-16
    outer loop
      vertex 30.2775 14.5507 -9
      vertex 30.2775 14.5507 -10
      vertex 33.303 16.1679 -9
    endloop
  endfacet
  facet normal 0.290285 -0.95694 1.17191e-16
    outer loop
      vertex 33.303 16.1679 -10
      vertex 36.5859 17.1637 -10
      vertex 36.5859 17.1637 -9
    endloop
  endfacet
  facet normal 0.290285 -0.95694 1.17191e-16
    outer loop
      vertex 33.303 16.1679 -9
      vertex 33.303 16.1679 -10
      vertex 36.5859 17.1637 -9
    endloop
  endfacet
  facet normal 0.0980172 -0.995185 1.21875e-16
    outer loop
      vertex 36.5859 17.1637 -10
      vertex 40 17.5 -10
      vertex 40 17.5 -9
    endloop
  endfacet
  facet normal 0.0980172 -0.995185 1.21875e-16
    outer loop
      vertex 36.5859 17.1637 -9
      vertex 36.5859 17.1637 -10
      vertex 40 17.5 -9
    endloop
  endfacet
  facet normal -0.0980172 -0.995185 1.21875e-16
    outer loop
      vertex 40 17.5 -10
      vertex 43.4141 17.1637 -10
      vertex 43.4141 17.1637 -9
    endloop
  endfacet
  facet normal -0.0980172 -0.995185 1.21875e-16
    outer loop
      vertex 40 17.5 -9
      vertex 40 17.5 -10
      vertex 43.4141 17.1637 -9
    endloop
  endfacet
  facet normal -0.290285 -0.95694 1.17191e-16
    outer loop
      vertex 43.4141 17.1637 -10
      vertex 46.697 16.1679 -10
      vertex 46.697 16.1679 -9
    endloop
  endfacet
  facet normal -0.290285 -0.95694 1.17191e-16
    outer loop
      vertex 43.4141 17.1637 -9
      vertex 43.4141 17.1637 -10
      vertex 46.697 16.1679 -9
    endloop
  endfacet
  facet normal -0.471397 -0.881921 1.08004e-16
    outer loop
      vertex 46.697 16.1679 -10
      vertex 49.7225 14.5507 -10
      vertex 49.7225 14.5507 -9
    endloop
  endfacet
  facet normal -0.471397 -0.881921 1.08004e-16
    outer loop
      vertex 46.697 16.1679 -9
      vertex 46.697 16.1679 -10
      vertex 49.7225 14.5507 -9
    endloop
  endfacet
  facet normal -0.634393 -0.773011 9.46665e-17
    outer loop
      vertex 49.7225 14.5507 -10
      vertex 52.3744 12.3744 -10
      vertex 52.3744 12.3744 -9
    endloop
  endfacet
  facet normal -0.634393 -0.773011 9.46665e-17
    outer loop
      vertex 49.7225 14.5507 -9
      vertex 49.7225 14.5507 -10
      vertex 52.3744 12.3744 -9
    endloop
  endfacet
  facet normal -0.773011 -0.634393 7.76908e-17
    outer loop
      vertex 54.5507 9.72248 -10
      vertex 54.5507 9.72248 -9
      vertex 52.3744 12.3744 -10
    endloop
  endfacet
  facet normal -0.773011 -0.634393 7.76908e-17
    outer loop
      vertex 52.3744 12.3744 -10
      vertex 54.5507 9.72248 -9
      vertex 52.3744 12.3744 -9
    endloop
  endfacet
  facet normal -0.881921 -0.471397 5.77295e-17
    outer loop
      vertex 56.1679 6.69696 -10
      vertex 56.1679 6.69696 -9
      vertex 54.5507 9.72248 -10
    endloop
  endfacet
  facet normal -0.881921 -0.471397 5.77295e-17
    outer loop
      vertex 54.5507 9.72248 -10
      vertex 56.1679 6.69696 -9
      vertex 54.5507 9.72248 -9
    endloop
  endfacet
  facet normal -0.95694 -0.290285 3.55496e-17
    outer loop
      vertex 57.1637 3.41408 -10
      vertex 57.1637 3.41408 -9
      vertex 56.1679 6.69696 -10
    endloop
  endfacet
  facet normal -0.95694 -0.290285 3.55496e-17
    outer loop
      vertex 56.1679 6.69696 -10
      vertex 57.1637 3.41408 -9
      vertex 56.1679 6.69696 -9
    endloop
  endfacet
  facet normal -0.995185 -0.0980172 1.20037e-17
    outer loop
      vertex 57.5 -1.22465e-15 -10
      vertex 57.5 -1.10218e-15 -9
      vertex 57.1637 3.41408 -10
    endloop
  endfacet
  facet normal -0.995185 -0.0980172 1.20037e-17
    outer loop
      vertex 57.1637 3.41408 -10
      vertex 57.5 -1.10218e-15 -9
      vertex 57.1637 3.41408 -9
    endloop
  endfacet
  facet normal -0.995185 0.0980172 -1.20037e-17
    outer loop
      vertex 57.5 -1.22465e-15 -10
      vertex 57.1637 -3.41408 -10
      vertex 57.5 -1.10218e-15 -9
    endloop
  endfacet
  facet normal -0.995185 0.0980172 -1.20037e-17
    outer loop
      vertex 57.5 -1.10218e-15 -9
      vertex 57.1637 -3.41408 -10
      vertex 57.1637 -3.41408 -9
    endloop
  endfacet
  facet normal -0.95694 0.290285 -3.55496e-17
    outer loop
      vertex 57.1637 -3.41408 -10
      vertex 56.1679 -6.69696 -10
      vertex 57.1637 -3.41408 -9
    endloop
  endfacet
  facet normal -0.95694 0.290285 -3.55496e-17
    outer loop
      vertex 57.1637 -3.41408 -9
      vertex 56.1679 -6.69696 -10
      vertex 56.1679 -6.69696 -9
    endloop
  endfacet
  facet normal -0.881921 0.471397 -5.77295e-17
    outer loop
      vertex 56.1679 -6.69696 -10
      vertex 54.5507 -9.72248 -10
      vertex 56.1679 -6.69696 -9
    endloop
  endfacet
  facet normal -0.881921 0.471397 -5.77295e-17
    outer loop
      vertex 56.1679 -6.69696 -9
      vertex 54.5507 -9.72248 -10
      vertex 54.5507 -9.72248 -9
    endloop
  endfacet
  facet normal -0.773011 0.634393 -7.76908e-17
    outer loop
      vertex 54.5507 -9.72248 -10
      vertex 52.3744 -12.3744 -10
      vertex 54.5507 -9.72248 -9
    endloop
  endfacet
  facet normal -0.773011 0.634393 -7.76908e-17
    outer loop
      vertex 54.5507 -9.72248 -9
      vertex 52.3744 -12.3744 -10
      vertex 52.3744 -12.3744 -9
    endloop
  endfacet
  facet normal -0.634393 0.773011 -9.46665e-17
    outer loop
      vertex 52.3744 -12.3744 -10
      vertex 49.7225 -14.5507 -10
      vertex 52.3744 -12.3744 -9
    endloop
  endfacet
  facet normal -0.634393 0.773011 -9.46665e-17
    outer loop
      vertex 52.3744 -12.3744 -9
      vertex 49.7225 -14.5507 -10
      vertex 49.7225 -14.5507 -9
    endloop
  endfacet
  facet normal -0.471397 0.881921 -1.08004e-16
    outer loop
      vertex 49.7225 -14.5507 -10
      vertex 46.697 -16.1679 -10
      vertex 49.7225 -14.5507 -9
    endloop
  endfacet
  facet normal -0.471397 0.881921 -1.08004e-16
    outer loop
      vertex 49.7225 -14.5507 -9
      vertex 46.697 -16.1679 -10
      vertex 46.697 -16.1679 -9
    endloop
  endfacet
  facet normal -0.290285 0.95694 -1.17191e-16
    outer loop
      vertex 46.697 -16.1679 -10
      vertex 43.4141 -17.1637 -10
      vertex 46.697 -16.1679 -9
    endloop
  endfacet
  facet normal -0.290285 0.95694 -1.17191e-16
    outer loop
      vertex 46.697 -16.1679 -9
      vertex 43.4141 -17.1637 -10
      vertex 43.4141 -17.1637 -9
    endloop
  endfacet
  facet normal -0.0980172 0.995185 -1.21875e-16
    outer loop
      vertex 43.4141 -17.1637 -10
      vertex 40 -17.5 -10
      vertex 43.4141 -17.1637 -9
    endloop
  endfacet
  facet normal -0.0980172 0.995185 -1.21875e-16
    outer loop
      vertex 43.4141 -17.1637 -9
      vertex 40 -17.5 -10
      vertex 40 -17.5 -9
    endloop
  endfacet
  facet normal 0.0980172 0.995185 -1.21875e-16
    outer loop
      vertex 40 -17.5 -10
      vertex 36.5859 -17.1637 -10
      vertex 40 -17.5 -9
    endloop
  endfacet
  facet normal 0.0980172 0.995185 -1.21875e-16
    outer loop
      vertex 40 -17.5 -9
      vertex 36.5859 -17.1637 -10
      vertex 36.5859 -17.1637 -9
    endloop
  endfacet
  facet normal 0.290285 0.95694 -1.17191e-16
    outer loop
      vertex 36.5859 -17.1637 -10
      vertex 33.303 -16.1679 -10
      vertex 36.5859 -17.1637 -9
    endloop
  endfacet
  facet normal 0.290285 0.95694 -1.17191e-16
    outer loop
      vertex 36.5859 -17.1637 -9
      vertex 33.303 -16.1679 -10
      vertex 33.303 -16.1679 -9
    endloop
  endfacet
  facet normal 0.471397 0.881921 -1.08004e-16
    outer loop
      vertex 33.303 -16.1679 -10
      vertex 30.2775 -14.5507 -10
      vertex 33.303 -16.1679 -9
    endloop
  endfacet
  facet normal 0.471397 0.881921 -1.08004e-16
    outer loop
      vertex 33.303 -16.1679 -9
      vertex 30.2775 -14.5507 -10
      vertex 30.2775 -14.5507 -9
    endloop
  endfacet
  facet normal 0.634393 0.773011 -9.46665e-17
    outer loop
      vertex 30.2775 -14.5507 -10
      vertex 27.6256 -12.3744 -10
      vertex 30.2775 -14.5507 -9
    endloop
  endfacet
  facet normal 0.634393 0.773011 -9.46665e-17
    outer loop
      vertex 30.2775 -14.5507 -9
      vertex 27.6256 -12.3744 -10
      vertex 27.6256 -12.3744 -9
    endloop
  endfacet
  facet normal 0.773011 0.634393 -7.76908e-17
    outer loop
      vertex 27.6256 -12.3744 -9
      vertex 27.6256 -12.3744 -10
      vertex 25.4493 -9.72248 -10
    endloop
  endfacet
  facet normal 0.773011 0.634393 -7.76908e-17
    outer loop
      vertex 25.4493 -9.72248 -9
      vertex 27.6256 -12.3744 -9
      vertex 25.4493 -9.72248 -10
    endloop
  endfacet
  facet normal 0.881921 0.471397 -5.77295e-17
    outer loop
      vertex 25.4493 -9.72248 -9
      vertex 25.4493 -9.72248 -10
      vertex 23.8321 -6.69696 -10
    endloop
  endfacet
  facet normal 0.881921 0.471397 -5.77295e-17
    outer loop
      vertex 23.8321 -6.69696 -9
      vertex 25.4493 -9.72248 -9
      vertex 23.8321 -6.69696 -10
    endloop
  endfacet
  facet normal 0.95694 0.290285 -3.55496e-17
    outer loop
      vertex 23.8321 -6.69696 -9
      vertex 23.8321 -6.69696 -10
      vertex 22.8363 -3.41408 -10
    endloop
  endfacet
  facet normal 0.95694 0.290285 -3.55496e-17
    outer loop
      vertex 22.8363 -3.41408 -9
      vertex 23.8321 -6.69696 -9
      vertex 22.8363 -3.41408 -10
    endloop
  endfacet
  facet normal 0.995185 0.0980172 -1.20037e-17
    outer loop
      vertex 22.8363 -3.41408 -9
      vertex 22.8363 -3.41408 -10
      vertex 22.5 -1.22465e-15 -10
    endloop
  endfacet
  facet normal 0.995185 0.0980172 -1.20037e-17
    outer loop
      vertex 22.5 -1.10218e-15 -9
      vertex 22.8363 -3.41408 -9
      vertex 22.5 -1.22465e-15 -10
    endloop
  endfacet
  facet normal 0.995185 0.0980172 -1.20036e-17
    outer loop
      vertex 19.3054 -4.11641 -3
      vertex 19.3054 -4.11641 -9
      vertex 18.9 -1.10218e-15 -9
    endloop
  endfacet
  facet normal 0.995185 0.0980172 -1.20036e-17
    outer loop
      vertex 18.9 -3.67394e-16 -3
      vertex 19.3054 -4.11641 -3
      vertex 18.9 -1.10218e-15 -9
    endloop
  endfacet
  facet normal 0.995185 -0.0980172 1.20036e-17
    outer loop
      vertex 18.9 -1.10218e-15 -9
      vertex 19.3054 4.11641 -9
      vertex 19.3054 4.11641 -3
    endloop
  endfacet
  facet normal 0.995185 -0.0980172 1.20036e-17
    outer loop
      vertex 18.9 -3.67394e-16 -3
      vertex 18.9 -1.10218e-15 -9
      vertex 19.3054 4.11641 -3
    endloop
  endfacet
  facet normal 0.95694 0.290285 -3.55496e-17
    outer loop
      vertex 20.5061 -8.07462 -3
      vertex 20.5061 -8.07462 -9
      vertex 19.3054 -4.11641 -9
    endloop
  endfacet
  facet normal 0.95694 0.290285 -3.55496e-17
    outer loop
      vertex 19.3054 -4.11641 -3
      vertex 20.5061 -8.07462 -3
      vertex 19.3054 -4.11641 -9
    endloop
  endfacet
  facet normal 0.881921 0.471397 -5.77294e-17
    outer loop
      vertex 22.456 -11.7225 -3
      vertex 22.456 -11.7225 -9
      vertex 20.5061 -8.07462 -9
    endloop
  endfacet
  facet normal 0.881921 0.471397 -5.77294e-17
    outer loop
      vertex 20.5061 -8.07462 -3
      vertex 22.456 -11.7225 -3
      vertex 20.5061 -8.07462 -9
    endloop
  endfacet
  facet normal 0.77301 0.634393 -7.76908e-17
    outer loop
      vertex 25.08 -14.92 -3
      vertex 25.08 -14.92 -9
      vertex 22.456 -11.7225 -9
    endloop
  endfacet
  facet normal 0.77301 0.634393 -7.76908e-17
    outer loop
      vertex 22.456 -11.7225 -3
      vertex 25.08 -14.92 -3
      vertex 22.456 -11.7225 -9
    endloop
  endfacet
  facet normal 0.634393 0.77301 -9.46665e-17
    outer loop
      vertex 28.2775 -17.544 -9
      vertex 25.08 -14.92 -9
      vertex 28.2775 -17.544 -3
    endloop
  endfacet
  facet normal 0.634393 0.77301 -9.46665e-17
    outer loop
      vertex 28.2775 -17.544 -3
      vertex 25.08 -14.92 -9
      vertex 25.08 -14.92 -3
    endloop
  endfacet
  facet normal 0.471397 0.881921 -1.08004e-16
    outer loop
      vertex 31.9254 -19.4939 -9
      vertex 28.2775 -17.544 -9
      vertex 31.9254 -19.4939 -3
    endloop
  endfacet
  facet normal 0.471397 0.881921 -1.08004e-16
    outer loop
      vertex 31.9254 -19.4939 -3
      vertex 28.2775 -17.544 -9
      vertex 28.2775 -17.544 -3
    endloop
  endfacet
  facet normal 0.290285 0.95694 -1.17191e-16
    outer loop
      vertex 35.8836 -20.6946 -9
      vertex 31.9254 -19.4939 -9
      vertex 35.8836 -20.6946 -3
    endloop
  endfacet
  facet normal 0.290285 0.95694 -1.17191e-16
    outer loop
      vertex 35.8836 -20.6946 -3
      vertex 31.9254 -19.4939 -9
      vertex 31.9254 -19.4939 -3
    endloop
  endfacet
  facet normal 0.0980172 0.995185 -1.21875e-16
    outer loop
      vertex 40 -21.1 -9
      vertex 35.8836 -20.6946 -9
      vertex 40 -21.1 -3
    endloop
  endfacet
  facet normal 0.0980172 0.995185 -1.21875e-16
    outer loop
      vertex 40 -21.1 -3
      vertex 35.8836 -20.6946 -9
      vertex 35.8836 -20.6946 -3
    endloop
  endfacet
  facet normal -0.0980172 0.995185 -1.21875e-16
    outer loop
      vertex 44.1164 -20.6946 -9
      vertex 40 -21.1 -9
      vertex 44.1164 -20.6946 -3
    endloop
  endfacet
  facet normal -0.0980172 0.995185 -1.21875e-16
    outer loop
      vertex 44.1164 -20.6946 -3
      vertex 40 -21.1 -9
      vertex 40 -21.1 -3
    endloop
  endfacet
  facet normal -0.290285 0.95694 -1.17191e-16
    outer loop
      vertex 48.0746 -19.4939 -9
      vertex 44.1164 -20.6946 -9
      vertex 48.0746 -19.4939 -3
    endloop
  endfacet
  facet normal -0.290285 0.95694 -1.17191e-16
    outer loop
      vertex 48.0746 -19.4939 -3
      vertex 44.1164 -20.6946 -9
      vertex 44.1164 -20.6946 -3
    endloop
  endfacet
  facet normal -0.471397 0.881921 -1.08004e-16
    outer loop
      vertex 51.7225 -17.544 -9
      vertex 48.0746 -19.4939 -9
      vertex 51.7225 -17.544 -3
    endloop
  endfacet
  facet normal -0.471397 0.881921 -1.08004e-16
    outer loop
      vertex 51.7225 -17.544 -3
      vertex 48.0746 -19.4939 -9
      vertex 48.0746 -19.4939 -3
    endloop
  endfacet
  facet normal -0.634393 0.77301 -9.46665e-17
    outer loop
      vertex 54.92 -14.92 -9
      vertex 51.7225 -17.544 -9
      vertex 54.92 -14.92 -3
    endloop
  endfacet
  facet normal -0.634393 0.77301 -9.46665e-17
    outer loop
      vertex 54.92 -14.92 -3
      vertex 51.7225 -17.544 -9
      vertex 51.7225 -17.544 -3
    endloop
  endfacet
  facet normal -0.77301 0.634393 -7.76908e-17
    outer loop
      vertex 57.544 -11.7225 -9
      vertex 54.92 -14.92 -9
      vertex 57.544 -11.7225 -3
    endloop
  endfacet
  facet normal -0.77301 0.634393 -7.76908e-17
    outer loop
      vertex 57.544 -11.7225 -3
      vertex 54.92 -14.92 -9
      vertex 54.92 -14.92 -3
    endloop
  endfacet
  facet normal -0.881921 0.471397 -5.77294e-17
    outer loop
      vertex 59.4939 -8.07462 -9
      vertex 57.544 -11.7225 -9
      vertex 59.4939 -8.07462 -3
    endloop
  endfacet
  facet normal -0.881921 0.471397 -5.77294e-17
    outer loop
      vertex 59.4939 -8.07462 -3
      vertex 57.544 -11.7225 -9
      vertex 57.544 -11.7225 -3
    endloop
  endfacet
  facet normal -0.95694 0.290285 -3.55496e-17
    outer loop
      vertex 60.6946 -4.11641 -9
      vertex 59.4939 -8.07462 -9
      vertex 60.6946 -4.11641 -3
    endloop
  endfacet
  facet normal -0.95694 0.290285 -3.55496e-17
    outer loop
      vertex 60.6946 -4.11641 -3
      vertex 59.4939 -8.07462 -9
      vertex 59.4939 -8.07462 -3
    endloop
  endfacet
  facet normal -0.995185 0.0980172 -1.20036e-17
    outer loop
      vertex 61.1 -1.10218e-15 -9
      vertex 60.6946 -4.11641 -9
      vertex 61.1 -3.67394e-16 -3
    endloop
  endfacet
  facet normal -0.995185 0.0980172 -1.20036e-17
    outer loop
      vertex 61.1 -3.67394e-16 -3
      vertex 60.6946 -4.11641 -9
      vertex 60.6946 -4.11641 -3
    endloop
  endfacet
  facet normal -0.995185 -0.0980172 1.20036e-17
    outer loop
      vertex 61.1 -1.10218e-15 -9
      vertex 61.1 -3.67394e-16 -3
      vertex 60.6946 4.11641 -9
    endloop
  endfacet
  facet normal -0.995185 -0.0980172 1.20036e-17
    outer loop
      vertex 60.6946 4.11641 -9
      vertex 61.1 -3.67394e-16 -3
      vertex 60.6946 4.11641 -3
    endloop
  endfacet
  facet normal -0.95694 -0.290285 3.55496e-17
    outer loop
      vertex 60.6946 4.11641 -9
      vertex 60.6946 4.11641 -3
      vertex 59.4939 8.07462 -9
    endloop
  endfacet
  facet normal -0.95694 -0.290285 3.55496e-17
    outer loop
      vertex 59.4939 8.07462 -9
      vertex 60.6946 4.11641 -3
      vertex 59.4939 8.07462 -3
    endloop
  endfacet
  facet normal -0.881921 -0.471397 5.77294e-17
    outer loop
      vertex 59.4939 8.07462 -9
      vertex 59.4939 8.07462 -3
      vertex 57.544 11.7225 -9
    endloop
  endfacet
  facet normal -0.881921 -0.471397 5.77294e-17
    outer loop
      vertex 57.544 11.7225 -9
      vertex 59.4939 8.07462 -3
      vertex 57.544 11.7225 -3
    endloop
  endfacet
  facet normal -0.77301 -0.634393 7.76908e-17
    outer loop
      vertex 57.544 11.7225 -9
      vertex 57.544 11.7225 -3
      vertex 54.92 14.92 -9
    endloop
  endfacet
  facet normal -0.77301 -0.634393 7.76908e-17
    outer loop
      vertex 54.92 14.92 -9
      vertex 57.544 11.7225 -3
      vertex 54.92 14.92 -3
    endloop
  endfacet
  facet normal -0.634393 -0.77301 9.46665e-17
    outer loop
      vertex 51.7225 17.544 -9
      vertex 54.92 14.92 -9
      vertex 54.92 14.92 -3
    endloop
  endfacet
  facet normal -0.634393 -0.77301 9.46665e-17
    outer loop
      vertex 51.7225 17.544 -3
      vertex 51.7225 17.544 -9
      vertex 54.92 14.92 -3
    endloop
  endfacet
  facet normal -0.471397 -0.881921 1.08004e-16
    outer loop
      vertex 48.0746 19.4939 -9
      vertex 51.7225 17.544 -9
      vertex 51.7225 17.544 -3
    endloop
  endfacet
  facet normal -0.471397 -0.881921 1.08004e-16
    outer loop
      vertex 48.0746 19.4939 -3
      vertex 48.0746 19.4939 -9
      vertex 51.7225 17.544 -3
    endloop
  endfacet
  facet normal -0.290285 -0.95694 1.17191e-16
    outer loop
      vertex 44.1164 20.6946 -9
      vertex 48.0746 19.4939 -9
      vertex 48.0746 19.4939 -3
    endloop
  endfacet
  facet normal -0.290285 -0.95694 1.17191e-16
    outer loop
      vertex 44.1164 20.6946 -3
      vertex 44.1164 20.6946 -9
      vertex 48.0746 19.4939 -3
    endloop
  endfacet
  facet normal -0.0980172 -0.995185 1.21875e-16
    outer loop
      vertex 40 21.1 -9
      vertex 44.1164 20.6946 -9
      vertex 44.1164 20.6946 -3
    endloop
  endfacet
  facet normal -0.0980172 -0.995185 1.21875e-16
    outer loop
      vertex 40 21.1 -3
      vertex 40 21.1 -9
      vertex 44.1164 20.6946 -3
    endloop
  endfacet
  facet normal 0.0980172 -0.995185 1.21875e-16
    outer loop
      vertex 35.8836 20.6946 -9
      vertex 40 21.1 -9
      vertex 40 21.1 -3
    endloop
  endfacet
  facet normal 0.0980172 -0.995185 1.21875e-16
    outer loop
      vertex 35.8836 20.6946 -3
      vertex 35.8836 20.6946 -9
      vertex 40 21.1 -3
    endloop
  endfacet
  facet normal 0.290285 -0.95694 1.17191e-16
    outer loop
      vertex 31.9254 19.4939 -9
      vertex 35.8836 20.6946 -9
      vertex 35.8836 20.6946 -3
    endloop
  endfacet
  facet normal 0.290285 -0.95694 1.17191e-16
    outer loop
      vertex 31.9254 19.4939 -3
      vertex 31.9254 19.4939 -9
      vertex 35.8836 20.6946 -3
    endloop
  endfacet
  facet normal 0.471397 -0.881921 1.08004e-16
    outer loop
      vertex 28.2775 17.544 -9
      vertex 31.9254 19.4939 -9
      vertex 31.9254 19.4939 -3
    endloop
  endfacet
  facet normal 0.471397 -0.881921 1.08004e-16
    outer loop
      vertex 28.2775 17.544 -3
      vertex 28.2775 17.544 -9
      vertex 31.9254 19.4939 -3
    endloop
  endfacet
  facet normal 0.634393 -0.77301 9.46665e-17
    outer loop
      vertex 25.08 14.92 -9
      vertex 28.2775 17.544 -9
      vertex 28.2775 17.544 -3
    endloop
  endfacet
  facet normal 0.634393 -0.77301 9.46665e-17
    outer loop
      vertex 25.08 14.92 -3
      vertex 25.08 14.92 -9
      vertex 28.2775 17.544 -3
    endloop
  endfacet
  facet normal 0.77301 -0.634393 7.76908e-17
    outer loop
      vertex 22.456 11.7225 -9
      vertex 25.08 14.92 -9
      vertex 25.08 14.92 -3
    endloop
  endfacet
  facet normal 0.77301 -0.634393 7.76908e-17
    outer loop
      vertex 22.456 11.7225 -3
      vertex 22.456 11.7225 -9
      vertex 25.08 14.92 -3
    endloop
  endfacet
  facet normal 0.881921 -0.471397 5.77294e-17
    outer loop
      vertex 20.5061 8.07462 -9
      vertex 22.456 11.7225 -9
      vertex 22.456 11.7225 -3
    endloop
  endfacet
  facet normal 0.881921 -0.471397 5.77294e-17
    outer loop
      vertex 20.5061 8.07462 -3
      vertex 20.5061 8.07462 -9
      vertex 22.456 11.7225 -3
    endloop
  endfacet
  facet normal 0.95694 -0.290285 3.55496e-17
    outer loop
      vertex 19.3054 4.11641 -9
      vertex 20.5061 8.07462 -9
      vertex 20.5061 8.07462 -3
    endloop
  endfacet
  facet normal 0.95694 -0.290285 3.55496e-17
    outer loop
      vertex 19.3054 4.11641 -3
      vertex 19.3054 4.11641 -9
      vertex 20.5061 8.07462 -3
    endloop
  endfacet
  facet normal 0 1.22465e-16 1
    outer loop
      vertex 19.3054 -4.11641 -9
      vertex 20.5061 -8.07462 -9
      vertex 22.456 -11.7225 -9
    endloop
  endfacet
  facet normal 0 1.22465e-16 1
    outer loop
      vertex 28.2775 -17.544 -9
      vertex 19.3054 -4.11641 -9
      vertex 25.08 -14.92 -9
    endloop
  endfacet
  facet normal 0 1.22465e-16 1
    outer loop
      vertex 25.08 -14.92 -9
      vertex 19.3054 -4.11641 -9
      vertex 22.456 -11.7225 -9
    endloop
  endfacet
  facet normal 0 1.22465e-16 1
    outer loop
      vertex 31.9254 -19.4939 -9
      vertex 19.3054 -4.11641 -9
      vertex 28.2775 -17.544 -9
    endloop
  endfacet
  facet normal 0 1.22465e-16 1
    outer loop
      vertex 35.8836 -20.6946 -9
      vertex 19.3054 -4.11641 -9
      vertex 31.9254 -19.4939 -9
    endloop
  endfacet
  facet normal 0 1.22465e-16 1
    outer loop
      vertex 27.6256 -12.3744 -9
      vertex 19.3054 -4.11641 -9
      vertex 35.8836 -20.6946 -9
    endloop
  endfacet
  facet normal 0 1.22465e-16 1
    outer loop
      vertex 27.6256 -12.3744 -9
      vertex 25.4493 -9.72248 -9
      vertex 19.3054 -4.11641 -9
    endloop
  endfacet
  facet normal 0 1.22465e-16 1
    outer loop
      vertex 36.5859 -17.1637 -9
      vertex 33.303 -16.1679 -9
      vertex 40 -21.1 -9
    endloop
  endfacet
  facet normal 0 1.22465e-16 1
    outer loop
      vertex 40 -17.5 -9
      vertex 36.5859 -17.1637 -9
      vertex 44.1164 -20.6946 -9
    endloop
  endfacet
  facet normal 0 1.22465e-16 1
    outer loop
      vertex 46.697 -16.1679 -9
      vertex 43.4141 -17.1637 -9
      vertex 48.0746 -19.4939 -9
    endloop
  endfacet
  facet normal 0 1.22465e-16 1
    outer loop
      vertex 49.7225 -14.5507 -9
      vertex 46.697 -16.1679 -9
      vertex 51.7225 -17.544 -9
    endloop
  endfacet
  facet normal 0 1.22465e-16 1
    outer loop
      vertex 52.3744 -12.3744 -9
      vertex 49.7225 -14.5507 -9
      vertex 54.92 -14.92 -9
    endloop
  endfacet
  facet normal 0 1.22465e-16 1
    outer loop
      vertex 54.5507 -9.72248 -9
      vertex 52.3744 -12.3744 -9
      vertex 57.544 -11.7225 -9
    endloop
  endfacet
  facet normal 0 1.22465e-16 1
    outer loop
      vertex 56.1679 -6.69696 -9
      vertex 54.5507 -9.72248 -9
      vertex 59.4939 -8.07462 -9
    endloop
  endfacet
  facet normal 0 1.22465e-16 1
    outer loop
      vertex 57.1637 -3.41408 -9
      vertex 56.1679 -6.69696 -9
      vertex 60.6946 -4.11641 -9
    endloop
  endfacet
  facet normal 0 1.22465e-16 1
    outer loop
      vertex 54.5507 9.72248 -9
      vertex 56.1679 6.69696 -9
      vertex 59.4939 8.07462 -9
    endloop
  endfacet
  facet normal 0 1.22465e-16 1
    outer loop
      vertex 52.3744 12.3744 -9
      vertex 54.5507 9.72248 -9
      vertex 57.544 11.7225 -9
    endloop
  endfacet
  facet normal 0 1.22465e-16 1
    outer loop
      vertex 49.7225 14.5507 -9
      vertex 52.3744 12.3744 -9
      vertex 54.92 14.92 -9
    endloop
  endfacet
  facet normal 0 1.22465e-16 1
    outer loop
      vertex 46.697 16.1679 -9
      vertex 49.7225 14.5507 -9
      vertex 51.7225 17.544 -9
    endloop
  endfacet
  facet normal 0 1.22465e-16 1
    outer loop
      vertex 43.4141 17.1637 -9
      vertex 46.697 16.1679 -9
      vertex 48.0746 19.4939 -9
    endloop
  endfacet
  facet normal 0 1.22465e-16 1
    outer loop
      vertex 40 17.5 -9
      vertex 43.4141 17.1637 -9
      vertex 44.1164 20.6946 -9
    endloop
  endfacet
  facet normal 0 1.22465e-16 1
    outer loop
      vertex 57.1637 3.41408 -9
      vertex 57.5 -1.10218e-15 -9
      vertex 60.6946 4.11641 -9
    endloop
  endfacet
  facet normal 0 1.22465e-16 1
    outer loop
      vertex 25.08 14.92 -9
      vertex 19.3054 -4.11641 -9
      vertex 28.2775 17.544 -9
    endloop
  endfacet
  facet normal 0 1.22465e-16 1
    outer loop
      vertex 22.456 11.7225 -9
      vertex 19.3054 -4.11641 -9
      vertex 25.08 14.92 -9
    endloop
  endfacet
  facet normal 0 1.22465e-16 1
    outer loop
      vertex 20.5061 8.07462 -9
      vertex 19.3054 -4.11641 -9
      vertex 22.456 11.7225 -9
    endloop
  endfacet
  facet normal 0 1.22465e-16 1
    outer loop
      vertex 19.3054 4.11641 -9
      vertex 19.3054 -4.11641 -9
      vertex 20.5061 8.07462 -9
    endloop
  endfacet
  facet normal 0 1.22465e-16 1
    outer loop
      vertex 18.9 -1.10218e-15 -9
      vertex 19.3054 -4.11641 -9
      vertex 19.3054 4.11641 -9
    endloop
  endfacet
  facet normal 0 1.22465e-16 1
    outer loop
      vertex 30.2775 14.5507 -9
      vertex 33.303 16.1679 -9
      vertex 35.8836 20.6946 -9
    endloop
  endfacet
  facet normal 0 1.22465e-16 1
    outer loop
      vertex 23.8321 6.69696 -9
      vertex 19.3054 -4.11641 -9
      vertex 22.8363 3.41408 -9
    endloop
  endfacet
  facet normal 0 1.22465e-16 1
    outer loop
      vertex 27.6256 12.3744 -9
      vertex 30.2775 14.5507 -9
      vertex 31.9254 19.4939 -9
    endloop
  endfacet
  facet normal 0 1.22465e-16 1
    outer loop
      vertex 28.2775 17.544 -9
      vertex 19.3054 -4.11641 -9
      vertex 23.8321 6.69696 -9
    endloop
  endfacet
  facet normal 0 1.22465e-16 1
    outer loop
      vertex 28.2775 17.544 -9
      vertex 25.4493 9.72248 -9
      vertex 31.9254 19.4939 -9
    endloop
  endfacet
  facet normal 0 1.22465e-16 1
    outer loop
      vertex 25.4493 9.72248 -9
      vertex 27.6256 12.3744 -9
      vertex 31.9254 19.4939 -9
    endloop
  endfacet
  facet normal 0 1.22465e-16 1
    outer loop
      vertex 31.9254 19.4939 -9
      vertex 30.2775 14.5507 -9
      vertex 35.8836 20.6946 -9
    endloop
  endfacet
  facet normal 0 1.22465e-16 1
    outer loop
      vertex 23.8321 6.69696 -9
      vertex 25.4493 9.72248 -9
      vertex 28.2775 17.544 -9
    endloop
  endfacet
  facet normal 0 1.22465e-16 1
    outer loop
      vertex 35.8836 20.6946 -9
      vertex 33.303 16.1679 -9
      vertex 40 21.1 -9
    endloop
  endfacet
  facet normal 0 1.22465e-16 1
    outer loop
      vertex 25.4493 -9.72248 -9
      vertex 23.8321 -6.69696 -9
      vertex 19.3054 -4.11641 -9
    endloop
  endfacet
  facet normal 0 1.22465e-16 1
    outer loop
      vertex 33.303 16.1679 -9
      vertex 36.5859 17.1637 -9
      vertex 40 21.1 -9
    endloop
  endfacet
  facet normal 0 1.22465e-16 1
    outer loop
      vertex 40 21.1 -9
      vertex 40 17.5 -9
      vertex 44.1164 20.6946 -9
    endloop
  endfacet
  facet normal 0 1.22465e-16 1
    outer loop
      vertex 44.1164 20.6946 -9
      vertex 43.4141 17.1637 -9
      vertex 48.0746 19.4939 -9
    endloop
  endfacet
  facet normal 0 1.22465e-16 1
    outer loop
      vertex 48.0746 19.4939 -9
      vertex 46.697 16.1679 -9
      vertex 51.7225 17.544 -9
    endloop
  endfacet
  facet normal 0 1.22465e-16 1
    outer loop
      vertex 51.7225 17.544 -9
      vertex 49.7225 14.5507 -9
      vertex 54.92 14.92 -9
    endloop
  endfacet
  facet normal 0 1.22465e-16 1
    outer loop
      vertex 54.92 14.92 -9
      vertex 52.3744 12.3744 -9
      vertex 57.544 11.7225 -9
    endloop
  endfacet
  facet normal 0 1.22465e-16 1
    outer loop
      vertex 57.544 11.7225 -9
      vertex 54.5507 9.72248 -9
      vertex 59.4939 8.07462 -9
    endloop
  endfacet
  facet normal 0 1.22465e-16 1
    outer loop
      vertex 59.4939 8.07462 -9
      vertex 56.1679 6.69696 -9
      vertex 60.6946 4.11641 -9
    endloop
  endfacet
  facet normal 0 1.22465e-16 1
    outer loop
      vertex 56.1679 6.69696 -9
      vertex 57.1637 3.41408 -9
      vertex 60.6946 4.11641 -9
    endloop
  endfacet
  facet normal 0 1.22465e-16 1
    outer loop
      vertex 60.6946 4.11641 -9
      vertex 57.5 -1.10218e-15 -9
      vertex 61.1 -1.10218e-15 -9
    endloop
  endfacet
  facet normal 0 1.22465e-16 1
    outer loop
      vertex 61.1 -1.10218e-15 -9
      vertex 57.1637 -3.41408 -9
      vertex 60.6946 -4.11641 -9
    endloop
  endfacet
  facet normal 0 1.22465e-16 1
    outer loop
      vertex 60.6946 -4.11641 -9
      vertex 56.1679 -6.69696 -9
      vertex 59.4939 -8.07462 -9
    endloop
  endfacet
  facet normal 0 1.22465e-16 1
    outer loop
      vertex 59.4939 -8.07462 -9
      vertex 54.5507 -9.72248 -9
      vertex 57.544 -11.7225 -9
    endloop
  endfacet
  facet normal 0 1.22465e-16 1
    outer loop
      vertex 57.544 -11.7225 -9
      vertex 52.3744 -12.3744 -9
      vertex 54.92 -14.92 -9
    endloop
  endfacet
  facet normal 0 1.22465e-16 1
    outer loop
      vertex 54.92 -14.92 -9
      vertex 49.7225 -14.5507 -9
      vertex 51.7225 -17.544 -9
    endloop
  endfacet
  facet normal 0 1.22465e-16 1
    outer loop
      vertex 51.7225 -17.544 -9
      vertex 46.697 -16.1679 -9
      vertex 48.0746 -19.4939 -9
    endloop
  endfacet
  facet normal 0 1.22465e-16 1
    outer loop
      vertex 48.0746 -19.4939 -9
      vertex 43.4141 -17.1637 -9
      vertex 44.1164 -20.6946 -9
    endloop
  endfacet
  facet normal 0 1.22465e-16 1
    outer loop
      vertex 43.4141 -17.1637 -9
      vertex 40 -17.5 -9
      vertex 44.1164 -20.6946 -9
    endloop
  endfacet
  facet normal 0 1.22465e-16 1
    outer loop
      vertex 44.1164 -20.6946 -9
      vertex 36.5859 -17.1637 -9
      vertex 40 -21.1 -9
    endloop
  endfacet
  facet normal 0 1.22465e-16 1
    outer loop
      vertex 40 -21.1 -9
      vertex 33.303 -16.1679 -9
      vertex 35.8836 -20.6946 -9
    endloop
  endfacet
  facet normal 0 1.22465e-16 1
    outer loop
      vertex 33.303 -16.1679 -9
      vertex 30.2775 -14.5507 -9
      vertex 35.8836 -20.6946 -9
    endloop
  endfacet
  facet normal 0 1.22465e-16 1
    outer loop
      vertex 30.2775 -14.5507 -9
      vertex 27.6256 -12.3744 -9
      vertex 35.8836 -20.6946 -9
    endloop
  endfacet
  facet normal 0 1.22465e-16 1
    outer loop
      vertex 57.5 -1.10218e-15 -9
      vertex 57.1637 -3.41408 -9
      vertex 61.1 -1.10218e-15 -9
    endloop
  endfacet
  facet normal 0 1.22465e-16 1
    outer loop
      vertex 36.5859 17.1637 -9
      vertex 40 17.5 -9
      vertex 40 21.1 -9
    endloop
  endfacet
  facet normal 0 1.22465e-16 1
    outer loop
      vertex 22.5 -1.10218e-15 -9
      vertex 22.8363 3.41408 -9
      vertex 19.3054 -4.11641 -9
    endloop
  endfacet
  facet normal 0 1.22465e-16 1
    outer loop
      vertex 23.8321 -6.69696 -9
      vertex 22.8363 -3.41408 -9
      vertex 19.3054 -4.11641 -9
    endloop
  endfacet
  facet normal 0 1.22465e-16 1
    outer loop
      vertex 22.8363 -3.41408 -9
      vertex 22.5 -1.10218e-15 -9
      vertex 19.3054 -4.11641 -9
    endloop
  endfacet
endsolid OpenSCAD_Model
